<svg xmlns="http://www.w3.org/2000/svg" fill="none" viewBox="0 0 500 500"><g clip-path="url(#a)"><path fill="#fff" d="M0 0h500v500H0z"/><circle cx="250" cy="250" r="250" fill="url(#b)"/><path fill="#fff" d="m459.069 169.117-4.842 5.727c-22.537 26.644-45.256 41.038-68.727 47.636V426l-13.93 3.862-80.284-133.652-62.932 97.971 27.357 26.424 5.394 5.21-10.421 10.789-5.395-5.209-25.203-24.344-14.775 23.003L191.5 426v-46.562l-49.89-48.188-.486 103.287-15-.075.554-117.635-13.389-12.932L118.5 291c2.822 0 5.589-.09 8.301-.26l.311-65.892c-7.456 3.274-15.07 7.128-22.849 11.64l-6.488 3.763-7.526-12.976 6.488-3.762c9.563-5.547 18.94-10.182 28.142-14.023l-.046-.122 2.356-.891.005-1.014 2.643.013 9.027-3.411.047.124c31.954-10.805 61.592-12.268 89.152-9.942l.08-.443 5.369.953c26.29 2.701 50.666 8.577 73.342 12.666 22.688 4.091 43.532 6.43 63.646 3.057V210h2.658q1.768-.341 3.529-.745c21.766-5.001 43.555-17.46 66.086-44.099l4.844-5.725zM206.5 400.446l2.584-4.023-2.584-2.496zm33.692-189.792c-5.257 22.497-16.602 44.025-33.692 60.914v101.504l10.851 10.481 67.838-105.607 12.741.192 72.57 120.81V225.663c-22.003 3.231-44.12.523-66.308-3.477-20.917-3.772-42.042-8.667-64-11.532M191.5 284.096c-13.669 9.588-29.939 16.586-48.701 19.852l.024.207-1.086.127-.029 6.207 49.792 48.094zm0-75.314c-15.705 1.112-31.983 4.142-49.022 10.038l-.05 10.586-.001-.001-.031 6.482-.335-.002-.25 52.997c19.86-3.752 36.482-12.284 49.689-23.846zm15 39.971c8.848-11.913 15.101-25.519 18.648-39.696-6.138-.49-12.35-.771-18.648-.783zM131 30.5c43.584 0 75.106 16.723 94.161 42.156 18.027 24.062 24.336 55.172 20.04 85.448 17.263 2.362 33.705 5.833 49.427 8.911 27.444 5.371 52.09 9.421 75.872 5.548V57.5h15v111.467c19.053-6.13 38.141-18.6 57.773-41.811l4.844-5.725 11.452 9.686-4.842 5.727c-26.35 31.152-52.915 45.517-80.546 50.311-27.201 4.72-54.746 0-82.434-5.42-55.744-10.91-114.692-25.177-186.984 16.752l-6.488 3.764-7.526-12.976 6.488-3.762c8.929-5.179 17.681-9.553 26.263-13.226V38zm7.5 136.004c18.447-6.334 36.089-9.549 53-10.705V61.481c-13.77-8.898-31.33-14.707-53-15.794zm68-11.219c8.099-.009 16.026.405 23.791 1.111 3.942-27.085-1.765-54.231-17.135-74.746a83 83 0 0 0-6.656-7.83z"/></g><defs><linearGradient id="b" x1="250" x2="250" y1="0" y2="500" gradientUnits="userSpaceOnUse"><stop stop-color="#ad0cfb"/><stop offset=".633" stop-color="#5e0dff"/><stop offset="1" stop-color="#280c95"/></linearGradient><clipPath id="a"><path fill="#fff" d="M0 0h500v500H0z"/></clipPath></defs></svg>