<svg width="500" height="500" viewBox="0 0 500 500" fill="none" xmlns="http://www.w3.org/2000/svg">
<circle cx="250" cy="250" r="245.5" fill="#F5F5F5"/>
<circle cx="250" cy="250" r="245.5" stroke="#7DDC1F" stroke-width="9"/>
<circle cx="250" cy="250" r="245.5" stroke="black" stroke-width="9"/>
<g filter="url(#filter0_d_18_42)">
<path d="M90.9561 82.3143C147.431 73.796 200.877 102.323 216.691 144.06V89.2362H230.691V395.494C259.135 354.143 285.02 317.473 302.253 293.289C297.231 285.333 291.93 276.936 286.342 268.077L298.184 260.608C302.653 267.693 306.938 274.48 311.042 280.982C314.703 275.873 317.669 271.749 319.83 268.76C321.131 266.961 322.144 265.567 322.84 264.614C323.186 264.14 323.462 263.764 323.659 263.499C323.755 263.37 323.848 263.246 323.926 263.144C323.961 263.098 324.019 263.023 324.083 262.943C324.112 262.908 324.177 262.826 324.261 262.728C324.306 262.677 324.418 262.552 324.488 262.477C324.611 262.351 325.016 261.975 325.31 261.737C326.395 261.053 332.866 261.115 336.252 265.202C336.571 267.213 336.145 269.698 335.96 270.154C335.871 270.345 335.722 270.634 335.665 270.737C335.628 270.802 335.565 270.91 335.537 270.956C335.445 271.106 335.36 271.233 335.336 271.268C335.261 271.379 335.171 271.509 335.086 271.632C334.905 271.89 334.639 272.266 334.293 272.753C333.596 273.732 332.533 275.217 331.082 277.234C328.443 280.903 324.504 286.354 319.119 293.78C353.613 348.417 374.179 380.869 385.62 398.848V85.8358C392.595 85.8358 399.57 85.8352 399.62 85.8358V419.137H396.343L392.167 422.023L386.409 426.005C384.836 423.73 367.055 395.926 310.327 306.083C290.512 333.942 260.965 375.918 229.473 422.034L224.101 429.899L218.198 422.425L101.492 274.631L99 271.474V419.132C92.0113 426.119 85.0226 419.154 85 419.131V83.2127L90.9561 82.3143ZM216.691 193.947C213.96 201.25 209.979 208.543 204.64 215.705C188.681 237.112 160.801 257.145 118.441 273.505L216.691 397.926V193.947ZM204.243 150.8C192.655 117.068 148.983 90.3507 99 95.408V265.709L104.634 263.7C150.675 247.279 178.59 227.226 193.416 207.338C208.067 187.684 210.146 167.982 204.243 150.8Z" fill="#0073E5"/>
<path d="M90.9561 82.3143L90.5086 79.3479L90.5086 79.3479L90.9561 82.3143ZM216.691 144.06L213.886 145.123L219.691 144.06H216.691ZM216.691 89.2362V86.2362H213.691V89.2362H216.691ZM230.691 89.2362H233.691V86.2362H230.691V89.2362ZM230.691 395.494H227.691V405.149L233.163 397.194L230.691 395.494ZM302.253 293.289L304.696 295.03L305.864 293.39L304.79 291.688L302.253 293.289ZM286.342 268.077L284.741 265.54L282.204 267.14L283.804 269.678L286.342 268.077ZM298.184 260.608L300.721 259.008L299.12 256.47L296.583 258.071L298.184 260.608ZM311.042 280.982L308.505 282.583L310.884 286.353L313.481 282.729L311.042 280.982ZM319.83 268.76L317.399 267.002V267.002L319.83 268.76ZM322.84 264.614L320.418 262.844L320.418 262.844L322.84 264.614ZM323.659 263.499L326.067 265.288L326.067 265.288L323.659 263.499ZM323.926 263.144L321.542 261.323L321.542 261.323L323.926 263.144ZM324.083 262.943L321.742 261.067L321.742 261.067L324.083 262.943ZM324.261 262.728L321.998 260.759L321.989 260.769L324.261 262.728ZM324.488 262.477L322.337 260.386L322.317 260.407L322.297 260.428L324.488 262.477ZM325.31 261.737L323.709 259.2L323.559 259.295L323.42 259.407L325.31 261.737ZM336.252 265.202L339.215 264.733L339.086 263.921L338.562 263.288L336.252 265.202ZM335.96 270.154L338.68 271.421L338.711 271.353L338.739 271.284L335.96 270.154ZM335.665 270.737L338.271 272.224L338.281 272.207L338.29 272.19L335.665 270.737ZM335.537 270.956L338.097 272.52L338.103 272.511L335.537 270.956ZM335.336 271.268L337.826 272.941L337.827 272.94L335.336 271.268ZM335.086 271.632L337.546 273.349L337.546 273.349L335.086 271.632ZM334.293 272.753L336.737 274.492V274.492L334.293 272.753ZM331.082 277.234L333.517 278.986H333.517L331.082 277.234ZM319.119 293.78L316.69 292.019L315.498 293.664L316.582 295.382L319.119 293.78ZM385.62 398.848L383.089 400.458L388.62 409.149V398.848H385.62ZM385.62 85.8358V82.8358L382.62 82.8358V85.8358H385.62ZM399.62 85.8358H402.62V82.8703L399.655 82.836L399.62 85.8358ZM399.62 419.137V422.137H402.62V419.137H399.62ZM396.343 419.137V416.137H395.407L394.637 416.669L396.343 419.137ZM392.167 422.023L390.461 419.556L390.461 419.556L392.167 422.023ZM386.409 426.005L383.941 427.711L385.648 430.179L388.115 428.472L386.409 426.005ZM310.327 306.083L312.864 304.481L310.475 300.699L307.882 304.344L310.327 306.083ZM229.473 422.034L231.95 423.726L231.95 423.726L229.473 422.034ZM224.101 429.899L221.746 431.758L224.276 434.962L226.578 431.591L224.101 429.899ZM218.198 422.425L220.553 420.565V420.565L218.198 422.425ZM101.492 274.631L99.1377 276.49L99.1377 276.49L101.492 274.631ZM99 271.474L101.354 269.615L96 262.834V271.474H99ZM99 419.132L101.121 421.253L102 420.374V419.132H99ZM85 419.131H82V420.355L82.8565 421.23L85 419.131ZM85 83.2127L84.5525 80.2463L82 80.6313V83.2127H85ZM216.691 193.947H219.691L213.882 192.896L216.691 193.947ZM204.64 215.705L207.045 217.498L207.045 217.498L204.64 215.705ZM118.441 273.505L117.361 270.706L113.566 272.172L116.087 275.364L118.441 273.505ZM216.691 397.926L214.337 399.785L219.691 406.566V397.926H216.691ZM204.243 150.8L207.08 149.825L207.08 149.825L204.243 150.8ZM99 95.408L98.698 92.4233L96 92.6963V95.408H99ZM99 265.709H96V269.964L100.008 268.535L99 265.709ZM104.634 263.7L105.641 266.526L105.642 266.526L104.634 263.7ZM193.416 207.338L195.821 209.131L195.821 209.131L193.416 207.338ZM90.9561 82.3143L91.4035 85.2807C146.813 76.9233 198.682 104.997 213.886 145.123L216.691 144.06L219.497 142.997C203.072 99.6484 148.05 70.6688 90.5086 79.3479L90.9561 82.3143ZM216.691 144.06H219.691V89.2362H216.691H213.691V144.06H216.691ZM216.691 89.2362V92.2362H230.691V89.2362V86.2362H216.691V89.2362ZM230.691 89.2362H227.691V395.494H230.691H233.691V89.2362H230.691ZM230.691 395.494L233.163 397.194C261.595 355.86 287.47 319.205 304.696 295.03L302.253 293.289L299.81 291.548C282.57 315.742 256.675 352.426 228.22 393.794L230.691 395.494ZM302.253 293.289L304.79 291.688C299.768 283.731 294.468 275.335 288.879 266.476L286.342 268.077L283.804 269.678C289.393 278.538 294.694 286.934 299.716 294.89L302.253 293.289ZM286.342 268.077L287.942 270.614L299.784 263.146L298.184 260.608L296.583 258.071L284.741 265.54L286.342 268.077ZM298.184 260.608L295.646 262.209C300.116 269.294 304.402 276.082 308.505 282.583L311.042 280.982L313.579 279.381C309.475 272.878 305.19 266.092 300.721 259.008L298.184 260.608ZM311.042 280.982L313.481 282.729C317.14 277.622 320.103 273.502 322.261 270.517L319.83 268.76L317.399 267.002C315.234 269.996 312.265 274.124 308.603 279.235L311.042 280.982ZM319.83 268.76L322.261 270.517C323.56 268.721 324.57 267.331 325.262 266.384L322.84 264.614L320.418 262.844C319.717 263.802 318.701 265.2 317.399 267.002L319.83 268.76ZM322.84 264.614L325.262 266.384C325.608 265.911 325.878 265.543 326.067 265.288L323.659 263.499L321.251 261.71C321.046 261.986 320.764 262.37 320.418 262.844L322.84 264.614ZM323.659 263.499L326.067 265.288C326.158 265.166 326.242 265.054 326.31 264.966L323.926 263.144L321.542 261.323C321.454 261.438 321.353 261.573 321.251 261.71L323.659 263.499ZM323.926 263.144L326.309 264.966C326.337 264.929 326.38 264.875 326.424 264.819L324.083 262.943L321.742 261.067C321.658 261.172 321.585 261.267 321.542 261.323L323.926 263.144ZM324.083 262.943L326.424 264.819C326.453 264.783 326.488 264.74 326.533 264.688L324.261 262.728L321.989 260.769C321.866 260.912 321.77 261.032 321.742 261.067L324.083 262.943ZM324.261 262.728L326.524 264.698C326.522 264.7 326.528 264.693 326.542 264.677C326.555 264.663 326.571 264.645 326.588 264.626C326.625 264.585 326.659 264.548 326.679 264.527L324.488 262.477L322.297 260.428C322.208 260.523 322.071 260.675 321.998 260.759L324.261 262.728ZM324.488 262.477L326.639 264.569C326.627 264.581 326.641 264.566 326.692 264.519C326.735 264.477 326.792 264.425 326.855 264.367C326.988 264.246 327.115 264.136 327.199 264.068L325.31 261.737L323.42 259.407C323.041 259.714 322.548 260.169 322.337 260.386L324.488 262.477ZM325.31 261.737L326.91 264.275C326.572 264.488 326.356 264.5 326.524 264.467C326.62 264.448 326.811 264.423 327.099 264.413C327.671 264.395 328.455 264.445 329.322 264.621C331.104 264.982 332.838 265.783 333.942 267.116L336.252 265.202L338.562 263.288C336.28 260.534 333.085 259.261 330.514 258.74C329.204 258.475 327.955 258.382 326.903 258.417C326.379 258.434 325.86 258.484 325.381 258.577C324.974 258.656 324.318 258.816 323.709 259.2L325.31 261.737ZM336.252 265.202L333.289 265.671C333.394 266.332 333.385 267.178 333.309 267.973C333.272 268.356 333.223 268.685 333.179 268.924C333.119 269.247 333.101 269.22 333.181 269.025L335.96 270.154L338.739 271.284C338.911 270.86 339.016 270.352 339.078 270.018C339.156 269.599 339.228 269.097 339.281 268.549C339.384 267.485 339.429 266.083 339.215 264.733L336.252 265.202ZM335.96 270.154L333.24 268.888C333.217 268.937 333.176 269.022 333.127 269.118C333.104 269.162 333.083 269.203 333.066 269.236C333.047 269.273 333.038 269.288 333.04 269.285L335.665 270.737L338.29 272.19C338.38 272.027 338.561 271.675 338.68 271.421L335.96 270.154ZM335.665 270.737L333.059 269.251C333.048 269.271 333.028 269.304 333.008 269.34C332.998 269.356 332.989 269.372 332.982 269.384C332.973 269.398 332.97 269.403 332.972 269.401L335.537 270.956L338.103 272.511C338.149 272.435 338.226 272.302 338.271 272.224L335.665 270.737ZM335.537 270.956L332.977 269.392C332.922 269.482 332.868 269.563 332.845 269.596L335.336 271.268L337.827 272.94C337.852 272.903 337.969 272.73 338.097 272.52L335.537 270.956ZM335.336 271.268L332.845 269.596C332.787 269.683 332.71 269.795 332.626 269.914L335.086 271.632L337.546 273.349C337.633 273.224 337.736 273.076 337.826 272.941L335.336 271.268ZM335.086 271.632L332.626 269.914C332.454 270.161 332.194 270.527 331.849 271.014L334.293 272.753L336.737 274.492C337.084 274.005 337.357 273.62 337.546 273.349L335.086 271.632ZM334.293 272.753L331.849 271.014C331.156 271.987 330.096 273.467 328.647 275.482L331.082 277.234L333.517 278.986C334.97 276.967 336.036 275.477 336.737 274.492L334.293 272.753ZM331.082 277.234L328.647 275.482C326.011 279.147 322.074 284.594 316.69 292.019L319.119 293.78L321.548 295.541C326.934 288.113 330.875 282.659 333.517 278.986L331.082 277.234ZM319.119 293.78L316.582 295.382C351.077 350.02 371.645 382.475 383.089 400.458L385.62 398.848L388.151 397.237C376.713 379.263 356.149 346.815 321.656 292.179L319.119 293.78ZM385.62 398.848H388.62V85.8358H385.62H382.62V398.848H385.62ZM385.62 85.8358V88.8358C389.108 88.8358 392.595 88.8356 395.217 88.8356C396.528 88.8355 397.622 88.8355 398.392 88.8355C399.184 88.8356 399.596 88.8357 399.585 88.8356L399.62 85.8358L399.655 82.836C399.582 82.8351 392.572 82.8358 385.62 82.8358V85.8358ZM399.62 85.8358H396.62V419.137H399.62H402.62V85.8358H399.62ZM399.62 419.137V416.137H396.343V419.137V422.137H399.62V419.137ZM396.343 419.137L394.637 416.669L390.461 419.556L392.167 422.023L393.873 424.491L398.049 421.604L396.343 419.137ZM392.167 422.023L390.461 419.556L384.703 423.537L386.409 426.005L388.115 428.472L393.873 424.491L392.167 422.023ZM386.409 426.005L388.877 424.299C387.351 422.092 369.624 394.376 312.864 304.481L310.327 306.083L307.79 307.685C364.485 397.476 382.322 425.368 383.941 427.711L386.409 426.005ZM310.327 306.083L307.882 304.344C288.059 332.214 258.502 374.206 226.995 420.342L229.473 422.034L231.95 423.726C263.429 377.63 292.964 335.67 312.772 307.822L310.327 306.083ZM229.473 422.034L226.995 420.342L221.623 428.207L224.101 429.899L226.578 431.591L231.95 423.726L229.473 422.034ZM224.101 429.899L226.455 428.04L220.553 420.565L218.198 422.425L215.844 424.284L221.746 431.758L224.101 429.899ZM218.198 422.425L220.553 420.565L103.847 272.772L101.492 274.631L99.1377 276.49L215.844 424.284L218.198 422.425ZM101.492 274.631L103.847 272.772L101.354 269.615L99 271.474L96.6455 273.334L99.1377 276.49L101.492 274.631ZM99 271.474H96V419.132H99H102V271.474H99ZM99 419.132L96.8788 417.01C95.5022 418.387 94.2723 418.941 93.2762 419.142C92.2583 419.346 91.2667 419.223 90.3328 418.913C88.3709 418.262 87.0184 416.904 87.1435 417.032L85 419.131L82.8565 421.23C83.0042 421.38 85.1574 423.517 88.4427 424.608C90.1323 425.168 92.1997 425.478 94.4584 425.024C96.739 424.566 99.0035 423.371 101.121 421.253L99 419.132ZM85 419.131H88V83.2127H85H82V419.131H85ZM85 83.2127L85.4475 86.1792L91.4035 85.2807L90.9561 82.3143L90.5086 79.3479L84.5525 80.2463L85 83.2127ZM216.691 193.947L213.882 192.896C211.256 199.915 207.416 206.961 202.234 213.912L204.64 215.705L207.045 217.498C212.541 210.126 216.663 202.585 219.501 194.998L216.691 193.947ZM204.64 215.705L202.234 213.912C186.729 234.712 159.406 254.467 117.361 270.706L118.441 273.505L119.522 276.303C162.195 259.822 190.633 239.513 207.045 217.498L204.64 215.705ZM118.441 273.505L116.087 275.364L214.337 399.785L216.691 397.926L219.046 396.066L120.796 271.646L118.441 273.505ZM216.691 397.926H219.691V193.947H216.691H213.691V397.926H216.691ZM204.243 150.8L207.08 149.825C194.935 114.472 149.721 87.2608 98.698 92.4233L99 95.408L99.302 98.3928C148.246 93.4407 190.375 119.664 201.406 151.774L204.243 150.8ZM99 95.408H96V265.709H99H102V95.408H99ZM99 265.709L100.008 268.535L105.641 266.526L104.634 263.7L103.626 260.874L97.9924 262.883L99 265.709ZM104.634 263.7L105.642 266.526C151.996 249.993 180.513 229.665 195.821 209.131L193.416 207.338L191.011 205.545C176.667 224.786 149.353 244.566 103.626 260.874L104.634 263.7ZM193.416 207.338L195.821 209.131C211.03 188.729 213.324 167.999 207.08 149.825L204.243 150.8L201.406 151.774C206.968 167.965 205.105 186.638 191.011 205.545L193.416 207.338Z" fill="#7DDC1F"/>
</g>
<g filter="url(#filter1_d_18_42)">
<path d="M105.956 82.3135C162.431 73.7952 215.877 102.322 231.691 144.06V89.2353H245.691V395.493C274.135 354.142 300.02 317.473 317.253 293.288C312.231 285.332 306.93 276.936 301.342 268.076L313.184 260.607C317.653 267.692 321.938 274.479 326.042 280.981C329.703 275.872 332.669 271.748 334.83 268.759C336.131 266.96 337.144 265.566 337.84 264.613C338.186 264.139 338.462 263.763 338.659 263.498C338.755 263.369 338.848 263.245 338.926 263.144C338.961 263.097 339.019 263.023 339.083 262.942C339.112 262.907 339.177 262.825 339.261 262.728C339.306 262.676 339.418 262.551 339.488 262.477C339.612 262.35 340.016 261.974 340.31 261.736C341.395 261.052 347.866 261.115 351.252 265.201C351.571 267.212 351.145 269.697 350.96 270.153C350.871 270.344 350.722 270.633 350.665 270.736C350.628 270.801 350.565 270.909 350.537 270.955C350.445 271.105 350.36 271.232 350.336 271.268C350.261 271.379 350.171 271.509 350.086 271.631C349.905 271.89 349.639 272.265 349.293 272.752C348.596 273.731 347.533 275.216 346.082 277.233C343.443 280.902 339.503 286.353 334.118 293.779C368.612 348.417 389.179 380.869 400.62 398.848V85.8349C407.595 85.8349 414.569 85.8344 414.62 85.8349V419.136H411.343L407.167 422.022L401.409 426.004C399.836 423.729 382.054 395.925 325.327 306.083C305.512 333.942 275.965 375.918 244.473 422.033L239.101 429.898L233.198 422.424L116.492 274.63L114 271.474V419.131C107 426.13 100 419.13 100 419.13V83.2119L105.956 82.3135ZM231.691 193.946C228.96 201.249 224.979 208.542 219.64 215.704C203.681 237.112 175.801 257.144 133.441 273.504L231.691 397.925V193.946ZM219.243 150.799C207.655 117.067 163.983 90.3499 114 95.4072V265.708L119.634 263.699C165.675 247.278 193.59 227.225 208.416 207.337C223.067 187.683 225.146 167.981 219.243 150.799Z" fill="#F5F5F5"/>
<path d="M105.956 82.3135L105.509 79.347L105.509 79.347L105.956 82.3135ZM231.691 144.06L228.886 145.123L234.691 144.06H231.691ZM231.691 89.2353V86.2353H228.691V89.2353H231.691ZM245.691 89.2353H248.691V86.2353H245.691V89.2353ZM245.691 395.493H242.691V405.148L248.163 397.193L245.691 395.493ZM317.253 293.288L319.696 295.029L320.864 293.389L319.79 291.687L317.253 293.288ZM301.342 268.076L299.741 265.539L297.204 267.139L298.804 269.677L301.342 268.076ZM313.184 260.607L315.721 259.007L314.12 256.47L311.583 258.07L313.184 260.607ZM326.042 280.981L323.505 282.583L325.884 286.353L328.481 282.729L326.042 280.981ZM334.83 268.759L332.399 267.001V267.001L334.83 268.759ZM337.84 264.613L335.418 262.843L335.418 262.843L337.84 264.613ZM338.659 263.498L341.067 265.287L341.067 265.287L338.659 263.498ZM338.926 263.144L336.542 261.322L336.542 261.322L338.926 263.144ZM339.083 262.942L341.424 264.819L341.424 264.819L339.083 262.942ZM339.261 262.728L336.998 260.758L336.989 260.768L339.261 262.728ZM339.488 262.477L337.337 260.385L337.317 260.406L337.297 260.427L339.488 262.477ZM340.31 261.736L338.709 259.199L338.559 259.294L338.421 259.406L340.31 261.736ZM351.252 265.201L354.215 264.732L354.086 263.92L353.562 263.287L351.252 265.201ZM350.96 270.153L353.68 271.42L353.711 271.352L353.74 271.282L350.96 270.153ZM350.665 270.736L353.271 272.223L353.281 272.206L353.29 272.189L350.665 270.736ZM350.537 270.955L353.097 272.519L353.103 272.51L350.537 270.955ZM350.336 271.268L352.827 272.94L352.827 272.94L350.336 271.268ZM350.086 271.631L352.546 273.348L352.546 273.348L350.086 271.631ZM349.293 272.752L351.737 274.491V274.491L349.293 272.752ZM346.082 277.233L348.517 278.985H348.517L346.082 277.233ZM334.118 293.779L331.689 292.018L330.497 293.663L331.581 295.381L334.118 293.779ZM400.62 398.848L398.089 400.458L403.62 409.15V398.848H400.62ZM400.62 85.8349V82.8349L397.62 82.8349V85.8349H400.62ZM414.62 85.8349H417.62V82.869L414.654 82.8351L414.62 85.8349ZM414.62 419.136V422.136H417.62V419.136H414.62ZM411.343 419.136V416.136H410.407L409.637 416.668L411.343 419.136ZM407.167 422.022L405.461 419.555L405.461 419.555L407.167 422.022ZM401.409 426.004L398.941 427.71L400.648 430.178L403.115 428.471L401.409 426.004ZM325.327 306.083L327.864 304.481L325.475 300.699L322.882 304.344L325.327 306.083ZM244.473 422.033L246.95 423.725L246.95 423.725L244.473 422.033ZM239.101 429.898L236.746 431.758L239.276 434.961L241.578 431.59L239.101 429.898ZM233.198 422.424L235.553 420.565V420.565L233.198 422.424ZM116.492 274.63L114.138 276.489L114.138 276.489L116.492 274.63ZM114 271.474L116.354 269.615L111 262.833V271.474H114ZM114 419.131L116.121 421.252L117 420.374V419.131H114ZM100 419.13H103V419.13H100ZM100 83.2119L99.5525 80.2455L97 80.6305V83.2119H100ZM231.691 193.946H234.691L228.882 192.895L231.691 193.946ZM219.64 215.704L222.045 217.497H222.045L219.64 215.704ZM133.441 273.504L132.361 270.705L128.566 272.171L131.087 275.363L133.441 273.504ZM231.691 397.925L229.337 399.784L234.691 406.565V397.925H231.691ZM219.243 150.799L222.08 149.824L222.08 149.824L219.243 150.799ZM114 95.4072L113.698 92.4225L111 92.6954V95.4072H114ZM114 265.708H111V269.963L115.008 268.534L114 265.708ZM119.634 263.699L120.641 266.525L120.642 266.525L119.634 263.699ZM208.416 207.337L210.821 209.13V209.13L208.416 207.337ZM105.956 82.3135L106.403 85.2799C161.813 76.9224 213.682 104.996 228.886 145.123L231.691 144.06L234.497 142.997C218.072 99.6478 163.05 70.668 105.509 79.347L105.956 82.3135ZM231.691 144.06H234.691V89.2353H231.691H228.691V144.06H231.691ZM231.691 89.2353V92.2353H245.691V89.2353V86.2353H231.691V89.2353ZM245.691 89.2353H242.691V395.493H245.691H248.691V89.2353H245.691ZM245.691 395.493L248.163 397.193C276.595 355.859 302.47 319.204 319.696 295.029L317.253 293.288L314.81 291.547C297.57 315.742 271.675 352.425 243.22 393.793L245.691 395.493ZM317.253 293.288L319.79 291.687C314.768 283.73 309.467 275.335 303.879 266.476L301.342 268.076L298.804 269.677C304.393 278.537 309.694 286.933 314.716 294.889L317.253 293.288ZM301.342 268.076L302.942 270.614L314.784 263.145L313.184 260.607L311.583 258.07L299.741 265.539L301.342 268.076ZM313.184 260.607L310.646 262.208C315.116 269.293 319.402 276.081 323.505 282.583L326.042 280.981L328.579 279.38C324.475 272.877 320.19 266.091 315.721 259.007L313.184 260.607ZM326.042 280.981L328.481 282.729C332.14 277.621 335.103 273.501 337.261 270.517L334.83 268.759L332.399 267.001C330.234 269.995 327.265 274.123 323.603 279.234L326.042 280.981ZM334.83 268.759L337.261 270.517C338.56 268.72 339.57 267.33 340.262 266.383L337.84 264.613L335.418 262.843C334.717 263.801 333.702 265.199 332.399 267.001L334.83 268.759ZM337.84 264.613L340.262 266.384C340.608 265.91 340.878 265.542 341.067 265.287L338.659 263.498L336.251 261.709C336.046 261.985 335.764 262.369 335.418 262.843L337.84 264.613ZM338.659 263.498L341.067 265.287C341.158 265.165 341.242 265.053 341.309 264.965L338.926 263.144L336.542 261.322C336.454 261.437 336.353 261.572 336.251 261.709L338.659 263.498ZM338.926 263.144L341.309 264.965C341.338 264.928 341.38 264.874 341.424 264.819L339.083 262.942L336.742 261.066C336.658 261.171 336.585 261.266 336.542 261.322L338.926 263.144ZM339.083 262.942L341.424 264.819C341.453 264.782 341.488 264.739 341.532 264.687L339.261 262.728L336.989 260.768C336.866 260.911 336.77 261.031 336.742 261.066L339.083 262.942ZM339.261 262.728L341.524 264.697C341.522 264.699 341.528 264.692 341.542 264.676C341.555 264.662 341.571 264.644 341.589 264.625C341.625 264.584 341.659 264.547 341.679 264.526L339.488 262.477L337.297 260.427C337.208 260.522 337.071 260.674 336.998 260.758L339.261 262.728ZM339.488 262.477L341.639 264.568C341.627 264.58 341.641 264.565 341.692 264.518C341.735 264.476 341.792 264.424 341.855 264.367C341.988 264.246 342.115 264.135 342.199 264.067L340.31 261.736L338.421 259.406C338.041 259.713 337.548 260.168 337.337 260.385L339.488 262.477ZM340.31 261.736L341.91 264.274C341.572 264.487 341.356 264.499 341.524 264.466C341.62 264.448 341.811 264.422 342.099 264.413C342.671 264.394 343.455 264.444 344.322 264.62C346.104 264.981 347.838 265.783 348.942 267.115L351.252 265.201L353.562 263.287C351.28 260.533 348.085 259.26 345.514 258.739C344.204 258.474 342.955 258.382 341.903 258.416C341.379 258.433 340.86 258.483 340.381 258.576C339.974 258.655 339.318 258.815 338.709 259.199L340.31 261.736ZM351.252 265.201L348.289 265.671C348.394 266.331 348.385 267.177 348.309 267.972C348.272 268.355 348.223 268.684 348.179 268.923C348.119 269.246 348.101 269.219 348.18 269.025L350.96 270.153L353.74 271.282C353.911 270.859 354.016 270.351 354.078 270.017C354.156 269.598 354.228 269.096 354.281 268.548C354.384 267.484 354.429 266.083 354.215 264.732L351.252 265.201ZM350.96 270.153L348.24 268.887C348.217 268.937 348.176 269.021 348.127 269.117C348.104 269.161 348.083 269.202 348.066 269.235C348.047 269.272 348.038 269.287 348.04 269.284L350.665 270.736L353.29 272.189C353.38 272.026 353.561 271.674 353.68 271.42L350.96 270.153ZM350.665 270.736L348.059 269.25C348.048 269.27 348.028 269.303 348.008 269.339C347.998 269.355 347.989 269.371 347.982 269.383C347.973 269.397 347.97 269.402 347.971 269.4L350.537 270.955L353.103 272.51C353.149 272.434 353.226 272.301 353.271 272.223L350.665 270.736ZM350.537 270.955L347.977 269.391C347.922 269.481 347.868 269.562 347.845 269.596L350.336 271.268L352.827 272.94C352.852 272.903 352.969 272.729 353.097 272.519L350.537 270.955ZM350.336 271.268L347.845 269.595C347.787 269.682 347.71 269.794 347.626 269.914L350.086 271.631L352.546 273.348C352.633 273.223 352.736 273.075 352.827 272.94L350.336 271.268ZM350.086 271.631L347.626 269.913C347.454 270.16 347.195 270.526 346.849 271.013L349.293 272.752L351.737 274.491C352.084 274.004 352.357 273.619 352.546 273.348L350.086 271.631ZM349.293 272.752L346.849 271.013C346.156 271.986 345.096 273.466 343.647 275.482L346.082 277.233L348.517 278.985C349.97 276.966 351.036 275.477 351.737 274.491L349.293 272.752ZM346.082 277.233L343.647 275.482C341.011 279.146 337.074 284.593 331.689 292.018L334.118 293.779L336.547 295.54C341.933 288.113 345.875 282.659 348.517 278.985L346.082 277.233ZM334.118 293.779L331.581 295.381C366.076 350.02 386.645 382.475 398.089 400.458L400.62 398.848L403.151 397.237C391.713 379.263 371.148 346.815 336.655 292.178L334.118 293.779ZM400.62 398.848H403.62V85.8349H400.62H397.62V398.848H400.62ZM400.62 85.8349V88.8349C404.107 88.8349 407.595 88.8348 410.217 88.8347C411.528 88.8347 412.622 88.8347 413.392 88.8347C414.183 88.8347 414.596 88.8349 414.586 88.8348L414.62 85.8349L414.654 82.8351C414.581 82.8343 407.572 82.8349 400.62 82.8349V85.8349ZM414.62 85.8349H411.62V419.136H414.62H417.62V85.8349H414.62ZM414.62 419.136V416.136H411.343V419.136V422.136H414.62V419.136ZM411.343 419.136L409.637 416.668L405.461 419.555L407.167 422.022L408.873 424.49L413.049 421.603L411.343 419.136ZM407.167 422.022L405.461 419.555L399.703 423.536L401.409 426.004L403.115 428.471L408.873 424.49L407.167 422.022ZM401.409 426.004L403.877 424.298C402.351 422.091 384.624 394.376 327.864 304.481L325.327 306.083L322.79 307.685C379.485 397.475 397.322 425.367 398.941 427.71L401.409 426.004ZM325.327 306.083L322.882 304.344C303.059 332.214 273.501 374.206 241.995 420.341L244.473 422.033L246.95 423.725C278.429 377.63 307.964 335.67 327.772 307.822L325.327 306.083ZM244.473 422.033L241.995 420.341L236.623 428.206L239.101 429.898L241.578 431.59L246.95 423.725L244.473 422.033ZM239.101 429.898L241.455 428.039L235.553 420.565L233.198 422.424L230.844 424.283L236.746 431.758L239.101 429.898ZM233.198 422.424L235.553 420.565L118.847 272.771L116.492 274.63L114.138 276.489L230.844 424.283L233.198 422.424ZM116.492 274.63L118.847 272.771L116.354 269.615L114 271.474L111.646 273.333L114.138 276.489L116.492 274.63ZM114 271.474H111V419.131H114H117V271.474H114ZM114 419.131L111.879 417.009C110.5 418.388 109.268 418.943 108.271 419.142C107.252 419.346 106.259 419.221 105.324 418.909C104.376 418.594 103.551 418.105 102.947 417.673C102.651 417.462 102.424 417.276 102.28 417.15C102.208 417.088 102.157 417.042 102.13 417.017C102.117 417.004 102.11 416.997 102.108 416.996C102.108 416.995 102.109 416.996 102.112 416.999C102.113 417.001 102.116 417.003 102.119 417.007C102.121 417.008 102.124 417.011 102.127 417.015C102.13 417.017 102.136 417.023 102.139 417.027C102.15 417.037 102.782 418.008 103 419.13H100H97C97.2178 420.252 97.8502 421.222 97.861 421.233C97.8646 421.237 97.8707 421.243 97.8731 421.246C97.8774 421.25 97.881 421.254 97.8833 421.256C97.8883 421.261 97.8933 421.266 97.8981 421.271C97.908 421.28 97.9193 421.291 97.9322 421.304C97.9579 421.329 97.9907 421.36 98.0302 421.397C98.1092 421.471 98.2161 421.568 98.3493 421.684C98.6149 421.914 98.9895 422.22 99.4592 422.556C100.387 423.218 101.749 424.042 103.426 424.601C105.116 425.165 107.186 425.478 109.448 425.025C111.732 424.569 114 423.373 116.121 421.252L114 419.131ZM100 419.13H103V83.2119H100H97V419.13H100ZM100 83.2119L100.447 86.1783L106.404 85.2799L105.956 82.3135L105.509 79.347L99.5525 80.2455L100 83.2119ZM231.691 193.946L228.882 192.895C226.256 199.914 222.416 206.96 217.234 213.911L219.64 215.704L222.045 217.497C227.541 210.125 231.663 202.584 234.501 194.997L231.691 193.946ZM219.64 215.704L217.234 213.911C201.729 234.711 174.407 254.466 132.361 270.705L133.441 273.504L134.522 276.302C177.195 259.821 205.633 239.512 222.045 217.497L219.64 215.704ZM133.441 273.504L131.087 275.363L229.337 399.784L231.691 397.925L234.046 396.066L135.796 271.645L133.441 273.504ZM231.691 397.925H234.691V193.946H231.691H228.691V397.925H231.691ZM219.243 150.799L222.08 149.824C209.935 114.471 164.721 87.26 113.698 92.4225L114 95.4072L114.302 98.392C163.246 93.4399 205.374 119.663 216.406 151.774L219.243 150.799ZM114 95.4072H111V265.708H114H117V95.4072H114ZM114 265.708L115.008 268.534L120.641 266.525L119.634 263.699L118.626 260.873L112.992 262.882L114 265.708ZM119.634 263.699L120.642 266.525C166.997 249.992 195.513 229.665 210.821 209.13L208.416 207.337L206.011 205.544C191.667 224.786 164.354 244.565 118.626 260.874L119.634 263.699ZM208.416 207.337L210.821 209.13C226.03 188.728 228.324 167.998 222.08 149.824L219.243 150.799L216.406 151.774C221.968 167.964 220.105 186.637 206.011 205.544L208.416 207.337Z" fill="black"/>
</g>
<defs>
<filter id="filter0_d_18_42" x="78" y="77.81" width="328.62" height="365.152" filterUnits="userSpaceOnUse" color-interpolation-filters="sRGB">
<feFlood flood-opacity="0" result="BackgroundImageFix"/>
<feColorMatrix in="SourceAlpha" type="matrix" values="0 0 0 0 0 0 0 0 0 0 0 0 0 0 0 0 0 0 127 0" result="hardAlpha"/>
<feOffset dy="4"/>
<feGaussianBlur stdDeviation="2"/>
<feComposite in2="hardAlpha" operator="out"/>
<feColorMatrix type="matrix" values="0 0 0 0 0 0 0 0 0 0 0 0 0 0 0 0 0 0 0.25 0"/>
<feBlend mode="normal" in2="BackgroundImageFix" result="effect1_dropShadow_18_42"/>
<feBlend mode="normal" in="SourceGraphic" in2="effect1_dropShadow_18_42" result="shape"/>
</filter>
<filter id="filter1_d_18_42" x="93" y="77.8092" width="328.62" height="365.152" filterUnits="userSpaceOnUse" color-interpolation-filters="sRGB">
<feFlood flood-opacity="0" result="BackgroundImageFix"/>
<feColorMatrix in="SourceAlpha" type="matrix" values="0 0 0 0 0 0 0 0 0 0 0 0 0 0 0 0 0 0 127 0" result="hardAlpha"/>
<feOffset dy="4"/>
<feGaussianBlur stdDeviation="2"/>
<feComposite in2="hardAlpha" operator="out"/>
<feColorMatrix type="matrix" values="0 0 0 0 0 0 0 0 0 0 0 0 0 0 0 0 0 0 0.25 0"/>
<feBlend mode="normal" in2="BackgroundImageFix" result="effect1_dropShadow_18_42"/>
<feBlend mode="normal" in="SourceGraphic" in2="effect1_dropShadow_18_42" result="shape"/>
</filter>
</defs>
</svg>
