<svg width="500" height="500" viewBox="0 0 500 500" fill="none" xmlns="http://www.w3.org/2000/svg">
<circle cx="250" cy="250" r="250" fill="#FF66CC"/>
<g filter="url(#filter0_d_15_28)">
<path d="M83.9736 71.5495C143.912 62.668 200.632 92.9611 216.278 136.937V78.4734H230.278V395.429C260.439 352.338 287.911 314.096 306.141 288.963C300.854 280.735 295.273 272.051 289.388 262.885L301.169 255.321C305.973 262.803 310.575 269.962 314.977 276.814C318.977 271.328 322.209 266.914 324.545 263.741C325.911 261.885 326.973 260.448 327.704 259.466C328.068 258.977 328.357 258.59 328.563 258.317C328.664 258.184 328.76 258.058 328.841 257.954C328.878 257.907 328.937 257.831 329.003 257.751C329.032 257.715 329.098 257.633 329.184 257.536C329.229 257.484 329.343 257.36 329.414 257.286C329.539 257.16 329.946 256.789 330.24 256.554C331.32 255.885 337.749 255.968 341.125 260.021C341.454 262.065 341.014 264.589 340.823 265.051C340.732 265.242 340.58 265.534 340.521 265.637C340.484 265.703 340.419 265.811 340.391 265.857C340.296 266.009 340.208 266.137 340.184 266.173C340.106 266.285 340.013 266.418 339.924 266.544C339.735 266.81 339.456 267.197 339.093 267.699C338.361 268.709 337.245 270.239 335.722 272.32C332.942 276.117 328.788 281.765 323.104 289.465C360.04 346.94 381.777 380.631 393.656 398.964V74.9665C400.63 74.9665 407.603 74.9659 407.656 74.9665V418.78H404.411L394.455 425.786C392.802 423.437 374.073 394.666 314.266 301.61C293.457 330.346 262.276 373.861 229.026 421.692L223.686 429.376L217.823 422.082L95.2793 269.627L92 265.547V418.775C85.0281 425.746 78.056 418.831 78 418.774V72.4343L83.9736 71.5495ZM216.278 184.554C213.412 192.706 209.021 200.857 202.958 208.847C186.206 230.924 156.902 251.596 112.314 268.472L216.278 397.814V184.554ZM203.201 141.944C190.978 106.99 144.816 79.2788 92 84.6531V260.884L98.4209 258.635C146.818 241.677 176.194 220.957 191.805 200.385C207.228 180.059 209.41 159.699 203.201 141.944Z" fill="#66CCFF"/>
<path d="M83.9736 71.5495L84.4132 74.5172L84.4134 74.5171L83.9736 71.5495ZM216.278 136.937L213.452 137.943L219.278 136.937H216.278ZM216.278 78.4734V75.4734H213.278V78.4734H216.278ZM230.278 78.4734H233.278V75.4734H230.278V78.4734ZM230.278 395.429H227.278V404.947L232.736 397.15L230.278 395.429ZM306.141 288.963L308.569 290.724L309.772 289.065L308.665 287.341L306.141 288.963ZM289.388 262.885L287.767 260.361L285.242 261.982L286.863 264.506L289.388 262.885ZM301.169 255.321L303.693 253.7L302.072 251.176L299.548 252.797L301.169 255.321ZM314.977 276.814L312.453 278.436L314.82 282.121L317.401 278.582L314.977 276.814ZM324.545 263.741L326.961 265.519L326.961 265.519L324.545 263.741ZM327.704 259.466L325.297 257.675V257.675L327.704 259.466ZM328.563 258.317L330.956 260.127L330.956 260.127L328.563 258.317ZM328.841 257.954L326.473 256.112L326.473 256.112L328.841 257.954ZM329.003 257.751L326.678 255.854L326.678 255.854L329.003 257.751ZM329.184 257.536L326.938 255.546L326.934 255.551L326.929 255.557L329.184 257.536ZM329.414 257.286L327.282 255.175L327.262 255.196L327.242 255.217L329.414 257.286ZM330.24 256.554L328.66 254.004L328.51 254.097L328.371 254.208L330.24 256.554ZM341.125 260.021L344.087 259.544L343.956 258.733L343.43 258.101L341.125 260.021ZM340.823 265.051L343.534 266.335L343.567 266.267L343.596 266.197L340.823 265.051ZM340.521 265.637L343.116 267.144L343.126 267.127L343.135 267.109L340.521 265.637ZM340.391 265.857L342.938 267.441L342.944 267.432L340.391 265.857ZM340.184 266.173L342.66 267.865L342.661 267.865L340.184 266.173ZM339.924 266.544L337.479 264.806L337.478 264.806L339.924 266.544ZM339.093 267.699L341.522 269.459L341.522 269.459L339.093 267.699ZM335.722 272.32L338.142 274.092L338.142 274.092L335.722 272.32ZM323.104 289.465L320.691 287.683L319.463 289.347L320.581 291.086L323.104 289.465ZM393.656 398.964L391.139 400.595L396.656 409.11V398.964H393.656ZM393.656 74.9665V71.9665L390.656 71.9665V74.9665H393.656ZM407.656 74.9665H410.656V72.0002L407.69 71.9667L407.656 74.9665ZM407.656 418.78V421.78H410.656V418.78H407.656ZM404.411 418.78V415.78H403.461L402.685 416.327L404.411 418.78ZM394.455 425.786L392.002 427.512L393.728 429.966L396.182 428.239L394.455 425.786ZM314.266 301.61L316.789 299.988L314.413 296.291L311.836 299.851L314.266 301.61ZM229.026 421.692L226.563 419.98L226.563 419.98L229.026 421.692ZM223.686 429.376L221.347 431.255L223.86 434.381L226.149 431.088L223.686 429.376ZM217.823 422.082L220.162 420.202L220.161 420.202L217.823 422.082ZM95.2793 269.627L92.941 271.506L92.941 271.506L95.2793 269.627ZM92 265.547L94.3383 263.667L89 257.025V265.547H92ZM92 418.775L94.1212 420.897L95 420.018V418.775H92ZM78 418.774H75V420.012L75.8727 420.889L78 418.774ZM78 72.4343L77.5605 69.4667L75 69.8459V72.4343H78ZM216.278 184.554H219.278L213.448 183.559L216.278 184.554ZM202.958 208.847L205.348 210.661H205.348L202.958 208.847ZM112.314 268.472L111.252 265.667L107.386 267.13L109.976 270.352L112.314 268.472ZM216.278 397.814L213.94 399.694L219.278 406.335V397.814H216.278ZM203.201 141.944L206.033 140.954L206.033 140.954L203.201 141.944ZM92 84.6531L91.6963 81.6685L89 81.9428V84.6531H92ZM92 260.884H89V265.113L92.9917 263.715L92 260.884ZM98.4209 258.635L99.4126 261.466L99.4129 261.466L98.4209 258.635ZM191.805 200.385L194.195 202.198L194.195 202.198L191.805 200.385ZM83.9736 71.5495L84.4134 74.5171C143.321 65.7884 198.406 95.6541 213.452 137.943L216.278 136.937L219.105 135.932C202.858 90.2682 144.504 59.5476 83.5339 68.5819L83.9736 71.5495ZM216.278 136.937H219.278V78.4734H216.278H213.278V136.937H216.278ZM216.278 78.4734V81.4734H230.278V78.4734V75.4734H216.278V78.4734ZM230.278 78.4734H227.278V395.429H230.278H233.278V78.4734H230.278ZM230.278 395.429L232.736 397.15C262.885 354.076 290.347 315.847 308.569 290.724L306.141 288.963L303.712 287.201C285.475 312.344 257.993 350.601 227.821 393.709L230.278 395.429ZM306.141 288.963L308.665 287.341C303.378 279.112 297.797 270.429 291.912 261.265L289.388 262.885L286.863 264.506C292.749 273.672 298.331 282.357 303.617 290.584L306.141 288.963ZM289.388 262.885L291.009 265.41L302.79 257.845L301.169 255.321L299.548 252.797L287.767 260.361L289.388 262.885ZM301.169 255.321L298.645 256.942C303.449 264.424 308.051 271.584 312.453 278.436L314.977 276.814L317.501 275.193C313.098 268.34 308.497 261.181 303.693 253.7L301.169 255.321ZM314.977 276.814L317.401 278.582C321.399 273.098 324.629 268.688 326.961 265.519L324.545 263.741L322.129 261.963C319.79 265.141 316.554 269.558 312.553 275.047L314.977 276.814ZM324.545 263.741L326.961 265.519C328.326 263.665 329.385 262.232 330.111 261.256L327.704 259.466L325.297 257.675C324.562 258.663 323.496 260.105 322.129 261.963L324.545 263.741ZM327.704 259.466L330.111 261.256C330.473 260.77 330.757 260.39 330.956 260.127L328.563 258.317L326.171 256.508C325.957 256.79 325.662 257.184 325.297 257.675L327.704 259.466ZM328.563 258.317L330.956 260.127C331.057 259.993 331.142 259.882 331.209 259.796L328.841 257.954L326.473 256.112C326.378 256.234 326.271 256.375 326.171 256.508L328.563 258.317ZM328.841 257.954L331.209 259.796C331.232 259.766 331.277 259.709 331.327 259.647L329.003 257.751L326.678 255.854C326.597 255.954 326.523 256.047 326.473 256.112L328.841 257.954ZM329.003 257.751L331.327 259.647C331.361 259.607 331.394 259.565 331.438 259.515L329.184 257.536L326.929 255.557C326.803 255.7 326.704 255.823 326.678 255.854L329.003 257.751ZM329.184 257.536L331.429 259.526C331.428 259.526 331.435 259.519 331.449 259.503C331.462 259.489 331.479 259.471 331.496 259.451C331.534 259.411 331.568 259.375 331.587 259.355L329.414 257.286L327.242 255.217C327.149 255.314 327.011 255.465 326.938 255.546L329.184 257.536ZM329.414 257.286L331.546 259.397C331.534 259.408 331.548 259.394 331.599 259.347C331.643 259.306 331.7 259.254 331.763 259.197C331.897 259.078 332.025 258.968 332.109 258.901L330.24 256.554L328.371 254.208C327.991 254.51 327.495 254.96 327.282 255.175L329.414 257.286ZM330.24 256.554L331.82 259.105C331.482 259.314 331.267 259.325 331.435 259.293C331.531 259.275 331.721 259.251 332.007 259.243C332.577 259.226 333.356 259.279 334.219 259.456C335.992 259.819 337.718 260.619 338.82 261.941L341.125 260.021L343.43 258.101C341.156 255.37 337.98 254.102 335.424 253.578C334.123 253.311 332.881 253.215 331.836 253.245C331.315 253.26 330.8 253.307 330.324 253.397C329.92 253.473 329.268 253.628 328.66 254.004L330.24 256.554ZM341.125 260.021L338.163 260.499C338.271 261.169 338.263 262.029 338.184 262.836C338.145 263.224 338.095 263.559 338.049 263.801C337.987 264.129 337.969 264.102 338.051 263.904L340.823 265.051L343.596 266.197C343.773 265.769 343.881 265.253 343.945 264.914C344.025 264.489 344.1 263.979 344.155 263.423C344.261 262.342 344.308 260.917 344.087 259.544L341.125 260.021ZM340.823 265.051L338.112 263.766C338.088 263.817 338.045 263.903 337.995 263.999C337.972 264.044 337.95 264.085 337.933 264.118C337.913 264.155 337.905 264.169 337.907 264.165L340.521 265.637L343.135 267.109C343.229 266.943 343.414 266.589 343.534 266.335L340.823 265.051ZM340.521 265.637L337.927 264.131C337.916 264.151 337.896 264.184 337.875 264.22C337.865 264.237 337.856 264.252 337.848 264.264C337.84 264.278 337.836 264.283 337.837 264.282L340.391 265.857L342.944 267.432C342.991 267.356 343.07 267.223 343.116 267.144L340.521 265.637ZM340.391 265.857L337.843 264.273C337.787 264.362 337.734 264.441 337.706 264.48L340.184 266.173L342.661 267.865C342.682 267.833 342.805 267.655 342.938 267.441L340.391 265.857ZM340.184 266.173L337.707 264.48C337.645 264.57 337.565 264.685 337.479 264.806L339.924 266.544L342.369 268.282C342.462 268.151 342.568 268.001 342.66 267.865L340.184 266.173ZM339.924 266.544L337.478 264.806C337.297 265.061 337.024 265.44 336.663 265.939L339.093 267.699L341.522 269.459C341.888 268.954 342.173 268.558 342.369 268.282L339.924 266.544ZM339.093 267.699L336.663 265.939C335.936 266.943 334.824 268.468 333.301 270.548L335.722 272.32L338.142 274.092C339.667 272.01 340.786 270.475 341.522 269.459L339.093 267.699ZM335.722 272.32L333.301 270.548C330.524 274.34 326.373 279.984 320.691 287.683L323.104 289.465L325.518 291.246C331.202 283.545 335.359 277.894 338.142 274.092L335.722 272.32ZM323.104 289.465L320.581 291.086C357.517 348.563 379.256 382.257 391.139 400.595L393.656 398.964L396.174 397.332C384.298 379.004 362.563 345.317 325.628 287.843L323.104 289.465ZM393.656 398.964H396.656V74.9665H393.656H390.656V398.964H393.656ZM393.656 74.9665V77.9665C397.143 77.9665 400.63 77.9664 403.252 77.9663C404.562 77.9663 405.657 77.9663 406.427 77.9663C407.218 77.9663 407.632 77.9664 407.622 77.9663L407.656 74.9665L407.69 71.9667C407.615 71.9659 400.607 71.9665 393.656 71.9665V74.9665ZM407.656 74.9665H404.656V418.78H407.656H410.656V74.9665H407.656ZM407.656 418.78V415.78H404.411V418.78V421.78H407.656V418.78ZM404.411 418.78L402.685 416.327L392.729 423.332L394.455 425.786L396.182 428.239L406.138 421.233L404.411 418.78ZM394.455 425.786L396.909 424.059C395.304 421.779 376.631 393.096 316.789 299.988L314.266 301.61L311.742 303.232C371.516 396.236 390.301 425.096 392.002 427.512L394.455 425.786ZM314.266 301.61L311.836 299.851C291.02 328.597 259.826 372.128 226.563 419.98L229.026 421.692L231.49 423.404C264.725 375.593 295.895 332.094 316.695 303.37L314.266 301.61ZM229.026 421.692L226.563 419.98L221.222 427.663L223.686 429.376L226.149 431.088L231.49 423.404L229.026 421.692ZM223.686 429.376L226.024 427.496L220.162 420.202L217.823 422.082L215.485 423.961L221.347 431.255L223.686 429.376ZM217.823 422.082L220.161 420.202L97.6176 267.747L95.2793 269.627L92.941 271.506L215.485 423.961L217.823 422.082ZM95.2793 269.627L97.6176 267.747L94.3383 263.667L92 265.547L89.6617 267.426L92.941 271.506L95.2793 269.627ZM92 265.547H89V418.775H92H95V265.547H92ZM92 418.775L89.8788 416.654C88.5054 418.027 87.2781 418.582 86.2837 418.784C85.2678 418.989 84.2784 418.868 83.3462 418.561C81.39 417.916 80.034 416.565 80.1273 416.659L78 418.774L75.8727 420.889C76.022 421.04 78.1801 423.175 81.4669 424.259C83.1562 424.816 85.2205 425.121 87.4745 424.664C89.75 424.203 92.0087 423.009 94.1212 420.897L92 418.775ZM78 418.774H81V72.4343H78H75V418.774H78ZM78 72.4343L78.4395 75.4019L84.4132 74.5172L83.9736 71.5495L83.5341 68.5819L77.5605 69.4667L78 72.4343ZM216.278 184.554L213.448 183.559C210.694 191.394 206.458 199.272 200.568 207.034L202.958 208.847L205.348 210.661C211.584 202.442 216.131 194.018 219.109 185.549L216.278 184.554ZM202.958 208.847L200.568 207.034C184.275 228.506 155.533 248.906 111.252 265.667L112.314 268.472L113.376 271.278C158.271 254.285 188.136 233.343 205.348 210.661L202.958 208.847ZM112.314 268.472L109.976 270.352L213.94 399.694L216.278 397.814L218.617 395.935L114.653 266.593L112.314 268.472ZM216.278 397.814H219.278V184.554H216.278H213.278V397.814H216.278ZM203.201 141.944L206.033 140.954C193.238 104.363 145.516 76.1921 91.6963 81.6685L92 84.6531L92.3037 87.6376C144.116 82.3655 188.719 109.618 200.369 142.934L203.201 141.944ZM92 84.6531H89V260.884H92H95V84.6531H92ZM92 260.884L92.9917 263.715L99.4126 261.466L98.4209 258.635L97.4292 255.803L91.0083 258.052L92 260.884ZM98.4209 258.635L99.4129 261.466C148.116 244.401 178.096 223.413 194.195 202.198L191.805 200.385L189.415 198.571C174.292 218.501 145.519 238.953 97.4289 255.803L98.4209 258.635ZM191.805 200.385L194.195 202.198C210.186 181.124 212.595 159.718 206.033 140.954L203.201 141.944L200.369 142.934C206.225 159.679 204.269 178.995 189.415 198.571L191.805 200.385Z" fill="#CCFF66"/>
</g>
<g filter="url(#filter1_d_15_28)">
<path d="M97.9736 71.5495C157.912 62.668 214.632 92.9611 230.278 136.937V78.4734H244.278V395.429C274.439 352.339 301.911 314.096 320.141 288.963C314.854 280.735 309.273 272.051 303.388 262.885L315.169 255.321C319.973 262.803 324.575 269.962 328.977 276.814C332.977 271.328 336.209 266.914 338.545 263.741C339.911 261.885 340.973 260.448 341.704 259.466C342.068 258.977 342.357 258.59 342.563 258.317C342.664 258.184 342.76 258.058 342.841 257.954C342.878 257.907 342.937 257.831 343.003 257.751C343.032 257.715 343.098 257.633 343.184 257.536C343.229 257.484 343.343 257.36 343.414 257.286C343.539 257.16 343.946 256.789 344.24 256.554C345.32 255.885 351.749 255.968 355.125 260.021C355.454 262.065 355.014 264.59 354.823 265.051C354.732 265.242 354.58 265.534 354.521 265.637C354.483 265.703 354.419 265.811 354.391 265.857C354.296 266.009 354.208 266.137 354.184 266.173C354.106 266.285 354.013 266.418 353.924 266.544C353.735 266.81 353.456 267.197 353.093 267.699C352.361 268.709 351.245 270.239 349.722 272.32C346.942 276.117 342.788 281.765 337.104 289.465C374.04 346.94 395.777 380.631 407.656 398.964V74.9656C414.629 74.9656 421.603 74.965 421.656 74.9656V418.779H418.412L408.455 425.786C406.803 423.438 388.075 394.668 328.266 301.61C307.457 330.346 276.276 373.861 243.026 421.692L237.686 429.376L231.823 422.082L109.279 269.627L106 265.547V418.775C99.0331 425.741 92.066 418.84 92 418.774V72.4343L97.9736 71.5495ZM230.278 184.554C227.412 192.706 223.021 200.857 216.958 208.847C200.206 230.924 170.902 251.596 126.314 268.472L230.278 397.814V184.554ZM217.201 141.944C204.978 106.99 158.816 79.2788 106 84.6531V260.884L112.421 258.635C160.818 241.677 190.194 220.957 205.805 200.385C221.228 180.059 223.41 159.699 217.201 141.944Z" fill="#66CCFF"/>
<path d="M97.9736 71.5495L98.4132 74.5172L98.4134 74.5171L97.9736 71.5495ZM230.278 136.937L227.452 137.943L233.278 136.937H230.278ZM230.278 78.4734V75.4734H227.278V78.4734H230.278ZM244.278 78.4734H247.278V75.4734H244.278V78.4734ZM244.278 395.429H241.278V404.947L246.736 397.15L244.278 395.429ZM320.141 288.963L322.569 290.724L323.772 289.065L322.665 287.341L320.141 288.963ZM303.388 262.885L301.767 260.361L299.242 261.982L300.863 264.506L303.388 262.885ZM315.169 255.321L317.693 253.7L316.072 251.176L313.548 252.797L315.169 255.321ZM328.977 276.814L326.453 278.436L328.82 282.121L331.401 278.582L328.977 276.814ZM338.545 263.741L340.961 265.519H340.961L338.545 263.741ZM341.704 259.466L339.297 257.675V257.675L341.704 259.466ZM342.563 258.317L344.956 260.127L344.956 260.127L342.563 258.317ZM342.841 257.954L340.473 256.112L340.473 256.112L342.841 257.954ZM343.003 257.751L340.678 255.854L340.678 255.854L343.003 257.751ZM343.184 257.536L340.938 255.546L340.929 255.557L343.184 257.536ZM343.414 257.286L341.282 255.175L341.262 255.196L341.242 255.217L343.414 257.286ZM344.24 256.554L342.66 254.005L342.51 254.098L342.371 254.208L344.24 256.554ZM355.125 260.021L358.087 259.544L357.956 258.733L357.43 258.101L355.125 260.021ZM354.823 265.051L357.534 266.336L357.567 266.267L357.595 266.197L354.823 265.051ZM354.521 265.637L357.116 267.144L357.126 267.127L357.135 267.11L354.521 265.637ZM354.391 265.857L356.938 267.441L356.944 267.432L354.391 265.857ZM354.184 266.173L356.66 267.865L356.661 267.865L354.184 266.173ZM353.924 266.544L351.479 264.806L351.479 264.806L353.924 266.544ZM353.093 267.699L355.522 269.459L355.522 269.459L353.093 267.699ZM349.722 272.32L352.142 274.092H352.142L349.722 272.32ZM337.104 289.465L334.691 287.683L333.463 289.347L334.581 291.086L337.104 289.465ZM407.656 398.964L405.139 400.595L410.656 409.11V398.964H407.656ZM407.656 74.9656V71.9656L404.656 71.9656V74.9656H407.656ZM421.656 74.9656H424.656V71.9988L421.69 71.9657L421.656 74.9656ZM421.656 418.779V421.779H424.656V418.779H421.656ZM418.412 418.779V415.779H417.462L416.686 416.326L418.412 418.779ZM408.455 425.786L406.002 427.512L407.728 429.966L410.182 428.239L408.455 425.786ZM328.266 301.61L330.789 299.988L328.413 296.291L325.836 299.851L328.266 301.61ZM243.026 421.692L240.563 419.98L240.563 419.98L243.026 421.692ZM237.686 429.376L235.347 431.255L237.86 434.381L240.149 431.088L237.686 429.376ZM231.823 422.082L234.162 420.202L234.161 420.202L231.823 422.082ZM109.279 269.627L106.941 271.506L106.941 271.506L109.279 269.627ZM106 265.547L108.338 263.667L103 257.025V265.547H106ZM106 418.775L108.121 420.897L109 420.018V418.775H106ZM92 418.774H89V420.014L89.875 420.892L92 418.774ZM92 72.4343L91.5605 69.4667L89 69.8459V72.4343H92ZM230.278 184.554H233.278L227.448 183.559L230.278 184.554ZM216.958 208.847L219.348 210.661V210.661L216.958 208.847ZM126.314 268.472L125.252 265.667L121.386 267.13L123.976 270.352L126.314 268.472ZM230.278 397.814L227.94 399.694L233.278 406.335V397.814H230.278ZM217.201 141.944L220.033 140.954L220.033 140.954L217.201 141.944ZM106 84.6531L105.696 81.6685L103 81.9428V84.6531H106ZM106 260.884H103V265.113L106.992 263.715L106 260.884ZM112.421 258.635L113.413 261.466L113.413 261.466L112.421 258.635ZM205.805 200.385L208.195 202.198H208.195L205.805 200.385ZM97.9736 71.5495L98.4134 74.5171C157.321 65.7884 212.406 95.654 227.452 137.943L230.278 136.937L233.105 135.932C216.858 90.2682 158.504 59.5476 97.5339 68.5819L97.9736 71.5495ZM230.278 136.937H233.278V78.4734H230.278H227.278V136.937H230.278ZM230.278 78.4734V81.4734H244.278V78.4734V75.4734H230.278V78.4734ZM244.278 78.4734H241.278V395.429H244.278H247.278V78.4734H244.278ZM244.278 395.429L246.736 397.15C276.885 354.076 304.347 315.847 322.569 290.724L320.141 288.963L317.712 287.201C299.475 312.344 271.993 350.601 241.821 393.709L244.278 395.429ZM320.141 288.963L322.665 287.341C317.378 279.112 311.797 270.429 305.912 261.265L303.388 262.885L300.863 264.506C306.749 273.672 312.331 282.357 317.617 290.584L320.141 288.963ZM303.388 262.885L305.009 265.41L316.79 257.845L315.169 255.321L313.548 252.797L301.767 260.361L303.388 262.885ZM315.169 255.321L312.645 256.942C317.449 264.424 322.051 271.584 326.453 278.436L328.977 276.814L331.501 275.193C327.098 268.34 322.497 261.181 317.693 253.7L315.169 255.321ZM328.977 276.814L331.401 278.582C335.399 273.098 338.629 268.688 340.961 265.519L338.545 263.741L336.129 261.963C333.79 265.141 330.554 269.558 326.553 275.047L328.977 276.814ZM338.545 263.741L340.961 265.519C342.326 263.665 343.385 262.232 344.111 261.256L341.704 259.466L339.297 257.675C338.562 258.663 337.496 260.105 336.129 261.963L338.545 263.741ZM341.704 259.466L344.111 261.256C344.473 260.77 344.757 260.39 344.956 260.127L342.563 258.317L340.171 256.508C339.957 256.79 339.662 257.184 339.297 257.675L341.704 259.466ZM342.563 258.317L344.956 260.127C345.057 259.993 345.142 259.882 345.209 259.796L342.841 257.954L340.473 256.112C340.378 256.234 340.271 256.375 340.171 256.508L342.563 258.317ZM342.841 257.954L345.209 259.796C345.232 259.766 345.277 259.709 345.327 259.647L343.003 257.751L340.678 255.854C340.597 255.954 340.523 256.047 340.473 256.112L342.841 257.954ZM343.003 257.751L345.327 259.647C345.361 259.607 345.394 259.565 345.438 259.515L343.184 257.536L340.929 255.557C340.803 255.701 340.704 255.823 340.678 255.854L343.003 257.751ZM343.184 257.536L345.429 259.526C345.428 259.526 345.435 259.519 345.449 259.503C345.462 259.489 345.479 259.471 345.496 259.452C345.534 259.411 345.567 259.375 345.587 259.355L343.414 257.286L341.242 255.217C341.149 255.314 341.011 255.465 340.938 255.546L343.184 257.536ZM343.414 257.286L345.546 259.396C345.534 259.408 345.548 259.394 345.599 259.347C345.643 259.306 345.7 259.254 345.763 259.197C345.897 259.078 346.025 258.968 346.109 258.901L344.24 256.554L342.371 254.208C341.991 254.51 341.495 254.96 341.282 255.175L343.414 257.286ZM344.24 256.554L345.821 259.104C345.483 259.314 345.267 259.325 345.435 259.293C345.53 259.275 345.721 259.251 346.007 259.243C346.577 259.226 347.356 259.279 348.219 259.456C349.992 259.819 351.718 260.619 352.82 261.941L355.125 260.021L357.43 258.101C355.156 255.37 351.98 254.102 349.424 253.578C348.122 253.311 346.881 253.215 345.836 253.245C345.315 253.26 344.8 253.307 344.324 253.397C343.92 253.473 343.268 253.628 342.66 254.005L344.24 256.554ZM355.125 260.021L352.163 260.498C352.271 261.169 352.263 262.029 352.184 262.836C352.145 263.224 352.095 263.559 352.049 263.801C351.987 264.129 351.969 264.102 352.051 263.904L354.823 265.051L357.595 266.197C357.773 265.769 357.881 265.253 357.945 264.914C358.025 264.489 358.1 263.979 358.155 263.423C358.261 262.342 358.308 260.917 358.087 259.544L355.125 260.021ZM354.823 265.051L352.112 263.766C352.088 263.817 352.045 263.903 351.995 263.999C351.972 264.044 351.95 264.085 351.933 264.118C351.913 264.155 351.905 264.169 351.908 264.165L354.521 265.637L357.135 267.11C357.229 266.943 357.414 266.589 357.534 266.336L354.823 265.051ZM354.521 265.637L351.927 264.131C351.916 264.151 351.896 264.184 351.875 264.22C351.865 264.237 351.855 264.252 351.848 264.265C351.84 264.278 351.837 264.283 351.837 264.282L354.391 265.857L356.944 267.432C356.991 267.356 357.07 267.223 357.116 267.144L354.521 265.637ZM354.391 265.857L351.843 264.273C351.787 264.362 351.733 264.441 351.706 264.48L354.184 266.173L356.661 267.865C356.682 267.833 356.805 267.655 356.938 267.441L354.391 265.857ZM354.184 266.173L351.707 264.48C351.645 264.57 351.565 264.685 351.479 264.806L353.924 266.544L356.369 268.282C356.462 268.151 356.568 268.001 356.66 267.865L354.184 266.173ZM353.924 266.544L351.479 264.806C351.297 265.061 351.024 265.44 350.663 265.939L353.093 267.699L355.522 269.459C355.888 268.954 356.173 268.558 356.369 268.282L353.924 266.544ZM353.093 267.699L350.663 265.939C349.936 266.943 348.824 268.468 347.301 270.548L349.722 272.32L352.142 274.092C353.667 272.01 354.786 270.475 355.522 269.459L353.093 267.699ZM349.722 272.32L347.301 270.548C344.524 274.34 340.373 279.984 334.691 287.683L337.104 289.465L339.518 291.246C345.202 283.545 349.359 277.894 352.142 274.092L349.722 272.32ZM337.104 289.465L334.581 291.086C371.517 348.563 393.257 382.257 405.139 400.595L407.656 398.964L410.174 397.332C398.298 379.004 376.563 345.317 339.628 287.843L337.104 289.465ZM407.656 398.964H410.656V74.9656H407.656H404.656V398.964H407.656ZM407.656 74.9656V77.9656C411.143 77.9656 414.63 77.9654 417.251 77.9653C418.562 77.9653 419.657 77.9653 420.427 77.9653C421.218 77.9653 421.632 77.9655 421.623 77.9654L421.656 74.9656L421.69 71.9657C421.614 71.9649 414.607 71.9656 407.656 71.9656V74.9656ZM421.656 74.9656H418.656V418.779H421.656H424.656V74.9656H421.656ZM421.656 418.779V415.779H418.412V418.779V421.779H421.656V418.779ZM418.412 418.779L416.686 416.326L406.729 423.332L408.455 425.786L410.182 428.239L420.139 421.232L418.412 418.779ZM408.455 425.786L410.909 424.059C409.304 421.78 390.632 393.098 330.789 299.988L328.266 301.61L325.742 303.232C385.518 396.238 404.302 425.097 406.002 427.512L408.455 425.786ZM328.266 301.61L325.836 299.851C305.02 328.597 273.826 372.129 240.563 419.98L243.026 421.692L245.49 423.404C278.725 375.593 309.895 332.094 330.695 303.37L328.266 301.61ZM243.026 421.692L240.563 419.98L235.222 427.663L237.686 429.376L240.149 431.088L245.49 423.404L243.026 421.692ZM237.686 429.376L240.024 427.496L234.162 420.202L231.823 422.082L229.485 423.961L235.347 431.255L237.686 429.376ZM231.823 422.082L234.161 420.202L111.618 267.747L109.279 269.627L106.941 271.506L229.485 423.961L231.823 422.082ZM109.279 269.627L111.618 267.747L108.338 263.667L106 265.547L103.662 267.426L106.941 271.506L109.279 269.627ZM106 265.547H103V418.775H106H109V265.547H106ZM106 418.775L103.879 416.654C102.506 418.026 101.28 418.581 100.286 418.783C99.2707 418.989 98.2819 418.869 97.3502 418.562C95.3952 417.919 94.0383 416.569 94.125 416.656L92 418.774L89.875 420.892C90.0277 421.045 92.1873 423.179 95.4741 424.261C97.1633 424.817 99.2267 425.12 101.479 424.663C103.753 424.202 106.01 423.007 108.121 420.897L106 418.775ZM92 418.774H95V72.4343H92H89V418.774H92ZM92 72.4343L92.4395 75.4019L98.4132 74.5172L97.9736 71.5495L97.5341 68.5819L91.5605 69.4667L92 72.4343ZM230.278 184.554L227.448 183.559C224.694 191.394 220.458 199.272 214.568 207.034L216.958 208.847L219.348 210.661C225.584 202.442 230.131 194.018 233.109 185.549L230.278 184.554ZM216.958 208.847L214.568 207.034C198.275 228.506 169.533 248.906 125.252 265.667L126.314 268.472L127.376 271.278C172.271 254.285 202.136 233.343 219.348 210.661L216.958 208.847ZM126.314 268.472L123.976 270.352L227.94 399.694L230.278 397.814L232.617 395.935L128.653 266.593L126.314 268.472ZM230.278 397.814H233.278V184.554H230.278H227.278V397.814H230.278ZM217.201 141.944L220.033 140.954C207.238 104.363 159.516 76.1921 105.696 81.6685L106 84.6531L106.304 87.6377C158.116 82.3655 202.719 109.618 214.369 142.934L217.201 141.944ZM106 84.6531H103V260.884H106H109V84.6531H106ZM106 260.884L106.992 263.715L113.413 261.466L112.421 258.635L111.429 255.803L105.008 258.052L106 260.884ZM112.421 258.635L113.413 261.466C162.116 244.401 192.096 223.413 208.195 202.198L205.805 200.385L203.415 198.571C188.292 218.501 159.519 238.953 111.429 255.803L112.421 258.635ZM205.805 200.385L208.195 202.198C224.186 181.124 226.594 159.718 220.033 140.954L217.201 141.944L214.369 142.934C220.225 159.679 218.269 178.995 203.415 198.571L205.805 200.385Z" fill="black"/>
</g>
<defs>
<filter id="filter0_d_15_28" x="71" y="67.0037" width="343.656" height="375.378" filterUnits="userSpaceOnUse" color-interpolation-filters="sRGB">
<feFlood flood-opacity="0" result="BackgroundImageFix"/>
<feColorMatrix in="SourceAlpha" type="matrix" values="0 0 0 0 0 0 0 0 0 0 0 0 0 0 0 0 0 0 127 0" result="hardAlpha"/>
<feOffset dy="4"/>
<feGaussianBlur stdDeviation="2"/>
<feComposite in2="hardAlpha" operator="out"/>
<feColorMatrix type="matrix" values="0 0 0 0 0 0 0 0 0 0 0 0 0 0 0 0 0 0 0.25 0"/>
<feBlend mode="normal" in2="BackgroundImageFix" result="effect1_dropShadow_15_28"/>
<feBlend mode="normal" in="SourceGraphic" in2="effect1_dropShadow_15_28" result="shape"/>
</filter>
<filter id="filter1_d_15_28" x="85" y="67.0037" width="343.656" height="375.378" filterUnits="userSpaceOnUse" color-interpolation-filters="sRGB">
<feFlood flood-opacity="0" result="BackgroundImageFix"/>
<feColorMatrix in="SourceAlpha" type="matrix" values="0 0 0 0 0 0 0 0 0 0 0 0 0 0 0 0 0 0 127 0" result="hardAlpha"/>
<feOffset dy="4"/>
<feGaussianBlur stdDeviation="2"/>
<feComposite in2="hardAlpha" operator="out"/>
<feColorMatrix type="matrix" values="0 0 0 0 0 0 0 0 0 0 0 0 0 0 0 0 0 0 0.25 0"/>
<feBlend mode="normal" in2="BackgroundImageFix" result="effect1_dropShadow_15_28"/>
<feBlend mode="normal" in="SourceGraphic" in2="effect1_dropShadow_15_28" result="shape"/>
</filter>
</defs>
</svg>
