<svg width="500" height="494" viewBox="0 0 500 494" fill="none" xmlns="http://www.w3.org/2000/svg">
<g clip-path="url(#clip0_15_4)">
<rect width="500" height="494" fill="#66CCFF"/>
<ellipse cx="250" cy="247" rx="250" ry="247" fill="#CCFF66"/>
<g filter="url(#filter0_d_15_4)">
<path d="M90.9736 68.5498C150.912 59.6683 207.632 89.9614 223.278 133.937V75.4736H237.278V392.43C267.439 349.339 294.911 311.096 313.141 285.963C307.854 277.735 302.273 269.051 296.388 259.886L308.169 252.321C312.973 259.803 317.575 266.962 321.977 273.814C325.977 268.328 329.209 263.915 331.545 260.741C332.911 258.885 333.973 257.448 334.704 256.466C335.068 255.977 335.357 255.59 335.563 255.317C335.664 255.184 335.76 255.058 335.841 254.954C335.878 254.907 335.937 254.832 336.003 254.751C336.032 254.715 336.098 254.633 336.184 254.536C336.229 254.485 336.343 254.36 336.414 254.286C336.539 254.16 336.946 253.789 337.24 253.555C338.32 252.886 344.749 252.968 348.125 257.021C348.454 259.066 348.014 261.59 347.823 262.051C347.732 262.243 347.58 262.534 347.521 262.638C347.484 262.703 347.419 262.811 347.391 262.857C347.296 263.009 347.208 263.137 347.184 263.173C347.106 263.286 347.013 263.418 346.924 263.544C346.735 263.81 346.456 264.197 346.093 264.699C345.361 265.709 344.245 267.24 342.722 269.32C339.942 273.117 335.788 278.765 330.104 286.465C367.04 343.94 388.777 377.631 400.656 395.964V71.9668C407.63 71.9668 414.603 71.9662 414.656 71.9668V415.78H411.411L401.455 422.786C399.802 420.437 381.073 391.666 321.266 298.61C300.457 327.346 269.276 370.861 236.026 418.692L230.686 426.376L224.823 419.082L102.279 266.627L99 262.547V415.775C92.0281 422.746 85.056 415.831 85 415.774V69.4346L90.9736 68.5498ZM223.278 181.555C220.412 189.706 216.021 197.857 209.958 205.848C193.206 227.925 163.902 248.596 119.314 265.473L223.278 394.814V181.555ZM210.201 138.944C197.978 103.991 151.816 76.2791 99 81.6533V257.884L105.421 255.635C153.818 238.677 183.194 217.957 198.805 197.385C214.228 177.06 216.41 156.699 210.201 138.944Z" fill="#FF66CC"/>
<path d="M90.9736 68.5498L91.4132 71.5174L91.4134 71.5174L90.9736 68.5498ZM223.278 133.937L220.452 134.943L226.278 133.937H223.278ZM223.278 75.4736V72.4736H220.278V75.4736H223.278ZM237.278 75.4736H240.278V72.4736H237.278V75.4736ZM237.278 392.43H234.278V401.948L239.736 394.15L237.278 392.43ZM313.141 285.963L315.569 287.724L316.772 286.065L315.665 284.341L313.141 285.963ZM296.388 259.886L294.767 257.361L292.242 258.982L293.863 261.507L296.388 259.886ZM308.169 252.321L310.693 250.7L309.072 248.176L306.548 249.797L308.169 252.321ZM321.977 273.814L319.453 275.436L321.82 279.121L324.401 275.582L321.977 273.814ZM331.545 260.741L333.961 262.519L333.961 262.519L331.545 260.741ZM334.704 256.466L332.297 254.675V254.675L334.704 256.466ZM335.563 255.317L337.956 257.127L337.956 257.127L335.563 255.317ZM335.841 254.954L333.473 253.112L333.473 253.112L335.841 254.954ZM336.003 254.751L333.678 252.854L333.678 252.855L336.003 254.751ZM336.184 254.536L333.938 252.546L333.934 252.552L333.929 252.557L336.184 254.536ZM336.414 254.286L334.282 252.175L334.262 252.196L334.242 252.217L336.414 254.286ZM337.24 253.555L335.66 251.005L335.51 251.098L335.371 251.208L337.24 253.555ZM348.125 257.021L351.087 256.544L350.956 255.733L350.43 255.102L348.125 257.021ZM347.823 262.051L350.534 263.336L350.567 263.267L350.596 263.197L347.823 262.051ZM347.521 262.638L350.116 264.145L350.126 264.127L350.135 264.11L347.521 262.638ZM347.391 262.857L349.938 264.441L349.944 264.433L347.391 262.857ZM347.184 263.173L349.66 264.866L349.661 264.865L347.184 263.173ZM346.924 263.544L344.479 261.806L344.478 261.806L346.924 263.544ZM346.093 264.699L348.522 266.459L348.522 266.459L346.093 264.699ZM342.722 269.32L345.142 271.093L345.142 271.093L342.722 269.32ZM330.104 286.465L327.691 284.683L326.463 286.347L327.581 288.087L330.104 286.465ZM400.656 395.964L398.139 397.595L403.656 406.111V395.964H400.656ZM400.656 71.9668V68.9668L397.656 68.9668V71.9668H400.656ZM414.656 71.9668H417.656V69.0005L414.69 68.967L414.656 71.9668ZM414.656 415.78V418.78H417.656V415.78H414.656ZM411.411 415.78V412.78H410.461L409.685 413.327L411.411 415.78ZM401.455 422.786L399.002 424.513L400.728 426.966L403.182 425.24L401.455 422.786ZM321.266 298.61L323.789 296.988L321.413 293.291L318.836 296.851L321.266 298.61ZM236.026 418.692L233.563 416.98L233.563 416.98L236.026 418.692ZM230.686 426.376L228.347 428.255L230.86 431.382L233.149 428.088L230.686 426.376ZM224.823 419.082L227.162 417.203L227.161 417.203L224.823 419.082ZM102.279 266.627L99.941 268.506L99.941 268.506L102.279 266.627ZM99 262.547L101.338 260.667L96 254.026V262.547H99ZM99 415.775L101.121 417.897L102 417.018V415.775H99ZM85 415.774H82V417.012L82.8727 417.89L85 415.774ZM85 69.4346L84.5605 66.4669L82 66.8462V69.4346H85ZM223.278 181.555H226.278L220.448 180.56L223.278 181.555ZM209.958 205.848L212.348 207.661H212.348L209.958 205.848ZM119.314 265.473L118.252 262.667L114.386 264.13L116.976 267.352L119.314 265.473ZM223.278 394.814L220.94 396.694L226.278 403.335V394.814H223.278ZM210.201 138.944L213.033 137.954L213.033 137.954L210.201 138.944ZM99 81.6533L98.6963 78.6687L96 78.9431V81.6533H99ZM99 257.884H96V262.113L99.9917 260.715L99 257.884ZM105.421 255.635L106.413 258.466L106.413 258.466L105.421 255.635ZM198.805 197.385L201.195 199.198L201.195 199.198L198.805 197.385ZM90.9736 68.5498L91.4134 71.5174C150.321 62.7886 205.406 92.6543 220.452 134.943L223.278 133.937L226.105 132.932C209.858 87.2685 151.504 56.5479 90.5339 65.5822L90.9736 68.5498ZM223.278 133.937H226.278V75.4736H223.278H220.278V133.937H223.278ZM223.278 75.4736V78.4736H237.278V75.4736V72.4736H223.278V75.4736ZM237.278 75.4736H234.278V392.43H237.278H240.278V75.4736H237.278ZM237.278 392.43L239.736 394.15C269.885 351.076 297.347 312.847 315.569 287.724L313.141 285.963L310.712 284.201C292.475 309.345 264.993 347.601 234.821 390.709L237.278 392.43ZM313.141 285.963L315.665 284.341C310.378 276.113 304.797 267.429 298.912 258.265L296.388 259.886L293.863 261.507C299.749 270.672 305.331 279.357 310.617 287.584L313.141 285.963ZM296.388 259.886L298.009 262.41L309.79 254.846L308.169 252.321L306.548 249.797L294.767 257.361L296.388 259.886ZM308.169 252.321L305.645 253.942C310.449 261.424 315.051 268.585 319.453 275.436L321.977 273.814L324.501 272.193C320.098 265.34 315.497 258.182 310.693 250.7L308.169 252.321ZM321.977 273.814L324.401 275.582C328.399 270.098 331.629 265.688 333.961 262.519L331.545 260.741L329.129 258.963C326.79 262.141 323.554 266.559 319.553 272.047L321.977 273.814ZM331.545 260.741L333.961 262.519C335.326 260.666 336.385 259.233 337.111 258.257L334.704 256.466L332.297 254.675C331.562 255.663 330.496 257.105 329.129 258.963L331.545 260.741ZM334.704 256.466L337.111 258.257C337.473 257.77 337.757 257.39 337.956 257.127L335.563 255.317L333.171 253.508C332.957 253.79 332.662 254.184 332.297 254.675L334.704 256.466ZM335.563 255.317L337.956 257.127C338.057 256.993 338.142 256.882 338.209 256.796L335.841 254.954L333.473 253.112C333.378 253.234 333.271 253.375 333.171 253.508L335.563 255.317ZM335.841 254.954L338.209 256.796C338.232 256.766 338.277 256.709 338.327 256.647L336.003 254.751L333.678 252.855C333.597 252.954 333.523 253.047 333.473 253.112L335.841 254.954ZM336.003 254.751L338.327 256.647C338.361 256.607 338.394 256.566 338.438 256.515L336.184 254.536L333.929 252.557C333.803 252.701 333.704 252.823 333.678 252.854L336.003 254.751ZM336.184 254.536L338.429 256.526C338.428 256.526 338.435 256.519 338.449 256.503C338.462 256.489 338.479 256.471 338.496 256.452C338.534 256.411 338.568 256.375 338.587 256.355L336.414 254.286L334.242 252.217C334.149 252.314 334.011 252.465 333.938 252.546L336.184 254.536ZM336.414 254.286L338.546 256.397C338.534 256.409 338.548 256.394 338.599 256.347C338.643 256.306 338.7 256.254 338.763 256.198C338.897 256.078 339.025 255.969 339.109 255.901L337.24 253.555L335.371 251.208C334.991 251.511 334.495 251.96 334.282 252.175L336.414 254.286ZM337.24 253.555L338.82 256.105C338.482 256.314 338.267 256.325 338.435 256.293C338.531 256.275 338.721 256.251 339.007 256.243C339.577 256.227 340.356 256.279 341.219 256.456C342.992 256.82 344.718 257.619 345.82 258.941L348.125 257.021L350.43 255.102C348.156 252.371 344.98 251.102 342.424 250.578C341.123 250.312 339.881 250.216 338.836 250.245C338.315 250.26 337.8 250.307 337.324 250.397C336.92 250.473 336.268 250.628 335.66 251.005L337.24 253.555ZM348.125 257.021L345.163 257.499C345.271 258.169 345.263 259.029 345.184 259.836C345.145 260.225 345.095 260.559 345.049 260.801C344.987 261.129 344.969 261.102 345.051 260.904L347.823 262.051L350.596 263.197C350.773 262.769 350.881 262.253 350.945 261.915C351.025 261.49 351.1 260.979 351.155 260.423C351.261 259.342 351.308 257.917 351.087 256.544L348.125 257.021ZM347.823 262.051L345.112 260.766C345.088 260.817 345.045 260.904 344.995 260.999C344.972 261.044 344.95 261.086 344.933 261.119C344.913 261.155 344.905 261.17 344.907 261.166L347.521 262.638L350.135 264.11C350.229 263.943 350.414 263.589 350.534 263.336L347.823 262.051ZM347.521 262.638L344.927 261.131C344.916 261.151 344.896 261.184 344.875 261.22C344.865 261.237 344.856 261.252 344.848 261.265C344.84 261.279 344.836 261.284 344.837 261.282L347.391 262.857L349.944 264.433C349.991 264.356 350.07 264.224 350.116 264.145L347.521 262.638ZM347.391 262.857L344.843 261.273C344.787 261.363 344.734 261.441 344.706 261.481L347.184 263.173L349.661 264.865C349.682 264.833 349.805 264.655 349.938 264.441L347.391 262.857ZM347.184 263.173L344.707 261.48C344.645 261.57 344.565 261.685 344.479 261.806L346.924 263.544L349.369 265.282C349.462 265.151 349.568 265.001 349.66 264.866L347.184 263.173ZM346.924 263.544L344.478 261.806C344.297 262.061 344.024 262.441 343.663 262.939L346.093 264.699L348.522 266.459C348.888 265.954 349.173 265.559 349.369 265.282L346.924 263.544ZM346.093 264.699L343.663 262.939C342.936 263.943 341.824 265.468 340.301 267.548L342.722 269.32L345.142 271.093C346.667 269.011 347.786 267.475 348.522 266.459L346.093 264.699ZM342.722 269.32L340.301 267.548C337.524 271.34 333.373 276.985 327.691 284.683L330.104 286.465L332.518 288.246C338.202 280.545 342.359 274.894 345.142 271.093L342.722 269.32ZM330.104 286.465L327.581 288.087C364.517 345.563 386.256 379.258 398.139 397.595L400.656 395.964L403.174 394.332C391.298 376.004 369.563 342.317 332.628 284.843L330.104 286.465ZM400.656 395.964H403.656V71.9668H400.656H397.656V395.964H400.656ZM400.656 71.9668V74.9668C404.143 74.9668 407.63 74.9666 410.252 74.9666C411.562 74.9665 412.657 74.9665 413.427 74.9665C414.218 74.9666 414.632 74.9667 414.622 74.9666L414.656 71.9668L414.69 68.967C414.615 68.9661 407.607 68.9668 400.656 68.9668V71.9668ZM414.656 71.9668H411.656V415.78H414.656H417.656V71.9668H414.656ZM414.656 415.78V412.78H411.411V415.78V418.78H414.656V415.78ZM411.411 415.78L409.685 413.327L399.729 420.333L401.455 422.786L403.182 425.24L413.138 418.234L411.411 415.78ZM401.455 422.786L403.909 421.06C402.304 418.779 383.631 390.096 323.789 296.988L321.266 298.61L318.742 300.232C378.516 393.236 397.301 422.096 399.002 424.513L401.455 422.786ZM321.266 298.61L318.836 296.851C298.02 325.597 266.826 369.129 233.563 416.98L236.026 418.692L238.49 420.405C271.725 372.594 302.895 329.095 323.695 300.37L321.266 298.61ZM236.026 418.692L233.563 416.98L228.222 424.664L230.686 426.376L233.149 428.088L238.49 420.405L236.026 418.692ZM230.686 426.376L233.024 424.497L227.162 417.203L224.823 419.082L222.485 420.961L228.347 428.255L230.686 426.376ZM224.823 419.082L227.161 417.203L104.618 264.747L102.279 266.627L99.941 268.506L222.485 420.962L224.823 419.082ZM102.279 266.627L104.618 264.748L101.338 260.667L99 262.547L96.6617 264.426L99.941 268.506L102.279 266.627ZM99 262.547H96V415.775H99H102V262.547H99ZM99 415.775L96.8788 413.654C95.5054 415.027 94.2781 415.582 93.2837 415.784C92.2678 415.99 91.2784 415.869 90.3462 415.561C88.39 414.916 87.034 413.565 87.1273 413.659L85 415.774L82.8727 417.89C83.022 418.04 85.1801 420.175 88.4669 421.259C90.1562 421.816 92.2205 422.121 94.4745 421.664C96.75 421.204 99.0087 420.009 101.121 417.897L99 415.775ZM85 415.774H88V69.4346H85H82V415.774H85ZM85 69.4346L85.4395 72.4022L91.4132 71.5174L90.9736 68.5498L90.5341 65.5822L84.5605 66.4669L85 69.4346ZM223.278 181.555L220.448 180.56C217.694 188.394 213.458 196.272 207.568 204.034L209.958 205.848L212.348 207.661C218.584 199.443 223.131 191.018 226.109 182.55L223.278 181.555ZM209.958 205.848L207.568 204.034C191.275 225.506 162.533 245.907 118.252 262.667L119.314 265.473L120.376 268.278C165.271 251.285 195.136 230.343 212.348 207.661L209.958 205.848ZM119.314 265.473L116.976 267.352L220.94 396.694L223.278 394.814L225.617 392.935L121.653 263.593L119.314 265.473ZM223.278 394.814H226.278V181.555H223.278H220.278V394.814H223.278ZM210.201 138.944L213.033 137.954C200.238 101.364 152.516 73.1924 98.6963 78.6687L99 81.6533L99.3037 84.6379C151.116 79.3658 195.719 106.618 207.369 139.935L210.201 138.944ZM99 81.6533H96V257.884H99H102V81.6533H99ZM99 257.884L99.9917 260.715L106.413 258.466L105.421 255.635L104.429 252.803L98.0083 255.052L99 257.884ZM105.421 255.635L106.413 258.466C155.116 241.401 185.096 220.413 201.195 199.198L198.805 197.385L196.415 195.571C181.292 215.501 152.519 235.954 104.429 252.804L105.421 255.635ZM198.805 197.385L201.195 199.198C217.186 178.124 219.595 156.718 213.033 137.954L210.201 138.944L207.369 139.935C213.225 156.679 211.269 175.995 196.415 195.571L198.805 197.385Z" fill="black"/>
</g>
</g>
<defs>
<filter id="filter0_d_15_4" x="78" y="64.0039" width="343.656" height="375.378" filterUnits="userSpaceOnUse" color-interpolation-filters="sRGB">
<feFlood flood-opacity="0" result="BackgroundImageFix"/>
<feColorMatrix in="SourceAlpha" type="matrix" values="0 0 0 0 0 0 0 0 0 0 0 0 0 0 0 0 0 0 127 0" result="hardAlpha"/>
<feOffset dy="4"/>
<feGaussianBlur stdDeviation="2"/>
<feComposite in2="hardAlpha" operator="out"/>
<feColorMatrix type="matrix" values="0 0 0 0 0 0 0 0 0 0 0 0 0 0 0 0 0 0 0.25 0"/>
<feBlend mode="normal" in2="BackgroundImageFix" result="effect1_dropShadow_15_4"/>
<feBlend mode="normal" in="SourceGraphic" in2="effect1_dropShadow_15_4" result="shape"/>
</filter>
<clipPath id="clip0_15_4">
<rect width="500" height="494" fill="white"/>
</clipPath>
</defs>
</svg>
