<svg width="500" height="494" viewBox="0 0 500 494" fill="none" xmlns="http://www.w3.org/2000/svg">
<g clip-path="url(#clip0_10_59)">
<rect width="500" height="494" fill="white"/>
<g filter="url(#filter0_d_10_59)">
<path d="M37.5801 18.3145C115.575 6.42904 188.715 47.2167 208.435 105.211C210.224 110.474 211.56 115.858 212.418 121.329V25.2344H226.418V458.524C267.903 397.476 305.846 343.168 330.427 308.33C323.245 296.835 315.647 284.669 307.612 271.801L319.487 264.387C326.372 275.413 332.935 285.922 339.189 295.934C345.25 287.377 350.095 280.575 353.488 275.834C355.273 273.34 356.66 271.413 357.612 270.097C358.087 269.441 358.46 268.926 358.725 268.566C358.854 268.39 358.973 268.231 359.068 268.104C359.113 268.046 359.177 267.961 359.246 267.874C359.277 267.835 359.344 267.751 359.429 267.651C359.474 267.599 359.587 267.472 359.657 267.396C359.781 267.268 360.185 266.89 360.478 266.65C361.567 265.957 368.063 266.007 371.454 270.113C371.767 272.106 371.347 274.569 371.165 275.022C371.077 275.212 370.931 275.502 370.874 275.605C370.837 275.671 370.773 275.78 370.745 275.827C370.651 275.982 370.561 276.118 370.531 276.163C370.443 276.295 370.332 276.458 370.217 276.625C369.976 276.974 369.617 277.487 369.143 278.16C368.19 279.513 366.733 281.568 364.742 284.364C360.947 289.695 355.191 297.744 347.24 308.819C400.461 393.99 429.757 440.655 444.318 463.729V20.5186H458.318V482.78H456.438C456.451 482.798 456.462 482.816 456.473 482.832L450.695 486.785L444.919 490.738C442.779 487.611 418.001 448.467 338.475 321.21C311.28 359.804 269.662 419.491 225.217 485.244L219.828 493.217L213.902 485.635L53.6914 280.657L47.7373 273.039L56.834 269.761C120.301 246.892 159.147 218.841 179.927 190.679C200.539 162.743 203.596 134.47 195.18 109.719C178.585 60.9149 116.095 23.1611 45.6348 31.3574V482.774C38.6584 489.75 31.6821 482.821 31.6348 482.773V19.2207L37.5801 18.3145ZM212.418 150.243C209.89 166.441 203.045 182.927 191.192 198.99C169.265 228.708 130.419 256.754 70.6182 279.579L212.418 461.002V150.243Z" fill="white"/>
<path d="M37.5801 18.3145L37.1281 15.3487L37.128 15.3487L37.5801 18.3145ZM208.435 105.211L211.275 104.245V104.245L208.435 105.211ZM212.418 121.329L209.454 121.794L215.418 121.329H212.418ZM212.418 25.2344V22.2344H209.418V25.2344H212.418ZM226.418 25.2344H229.418V22.2344H226.418V25.2344ZM226.418 458.524H223.418V468.277L228.899 460.211L226.418 458.524ZM330.427 308.33L332.878 310.06L334.027 308.431L332.971 306.741L330.427 308.33ZM307.612 271.801L306.023 269.256L303.479 270.845L305.068 273.39L307.612 271.801ZM319.487 264.387L322.032 262.798L320.443 260.253L317.898 261.842L319.487 264.387ZM339.189 295.934L336.645 297.523L339.033 301.345L341.638 297.668L339.189 295.934ZM353.488 275.834L351.049 274.088H351.049L353.488 275.834ZM357.612 270.097L355.182 268.338L355.182 268.338L357.612 270.097ZM358.725 268.566L361.141 270.344L361.142 270.343L358.725 268.566ZM359.068 268.104L356.676 266.294L356.676 266.295L359.068 268.104ZM359.246 267.874L361.596 269.738L361.597 269.738L359.246 267.874ZM359.429 267.651L357.156 265.693L357.147 265.704L359.429 267.651ZM359.657 267.396L357.496 265.316L357.476 265.337L357.456 265.359L359.657 267.396ZM360.478 266.65L358.867 264.119L358.716 264.216L358.577 264.329L360.478 266.65ZM371.454 270.113L374.418 269.648L374.29 268.836L373.767 268.203L371.454 270.113ZM371.165 275.022L373.89 276.278L373.921 276.211L373.948 276.142L371.165 275.022ZM370.874 275.605L373.486 277.081L373.496 277.064L373.505 277.046L370.874 275.605ZM370.745 275.827L373.312 277.38L373.317 277.372L370.745 275.827ZM370.531 276.163L368.033 274.502L368.033 274.503L370.531 276.163ZM370.217 276.625L367.749 274.919L367.749 274.919L370.217 276.625ZM369.143 278.16L371.595 279.888L371.595 279.887L369.143 278.16ZM364.742 284.364L367.186 286.104V286.104L364.742 284.364ZM347.24 308.819L344.803 307.07L343.63 308.704L344.696 310.409L347.24 308.819ZM444.318 463.729L441.781 465.33L447.318 474.104V463.729H444.318ZM444.318 20.5186V17.5186H441.318V20.5186H444.318ZM458.318 20.5186H461.318V17.5186H458.318V20.5186ZM458.318 482.78V485.78H461.318V482.78H458.318ZM456.438 482.78V479.78H450.783L453.955 484.463L456.438 482.78ZM456.473 482.832L458.167 485.308L460.643 483.614L458.948 481.138L456.473 482.832ZM450.695 486.785L449.001 484.309L449.001 484.309L450.695 486.785ZM444.919 490.738L442.443 492.432L444.137 494.908L446.613 493.214L444.919 490.738ZM338.475 321.21L341.019 319.62L338.624 315.789L336.022 319.482L338.475 321.21ZM225.217 485.244L222.731 483.564L222.731 483.564L225.217 485.244ZM219.828 493.217L217.464 495.064L220.004 498.314L222.314 494.897L219.828 493.217ZM213.902 485.635L216.266 483.787L216.266 483.787L213.902 485.635ZM53.6914 280.657L51.3277 282.505L51.3277 282.505L53.6914 280.657ZM47.7373 273.039L46.7202 270.217L42.8219 271.622L45.3736 274.886L47.7373 273.039ZM56.834 269.761L55.817 266.938L55.8169 266.938L56.834 269.761ZM179.927 190.679L182.341 192.46L182.341 192.46L179.927 190.679ZM195.18 109.719L198.02 108.753L198.02 108.753L195.18 109.719ZM45.6348 31.3574L45.2881 28.3775L42.6348 28.6862V31.3574H45.6348ZM45.6348 482.774L47.756 484.896L48.6348 484.017V482.774H45.6348ZM31.6348 482.773H28.6348V484.007L29.5022 484.883L31.6348 482.773ZM31.6348 19.2207L31.1827 16.255L28.6348 16.6433V19.2207H31.6348ZM212.418 150.243H215.418L209.454 149.78L212.418 150.243ZM191.192 198.99L193.606 200.771V200.771L191.192 198.99ZM70.6182 279.579L69.5484 276.776L65.7523 278.225L68.2545 281.427L70.6182 279.579ZM212.418 461.002L210.054 462.849L215.418 469.712V461.002H212.418ZM37.5801 18.3145L38.032 21.2802C114.931 9.56178 186.445 49.8616 205.594 106.177L208.435 105.211L211.275 104.245C190.984 44.5719 116.219 3.29631 37.1281 15.3487L37.5801 18.3145ZM208.435 105.211L205.594 106.177C207.33 111.28 208.624 116.496 209.454 121.794L212.418 121.329L215.382 120.864C214.497 115.22 213.119 109.669 211.275 104.245L208.435 105.211ZM212.418 121.329H215.418V25.2344H212.418H209.418V121.329H212.418ZM212.418 25.2344V28.2344H226.418V25.2344V22.2344H212.418V25.2344ZM226.418 25.2344H223.418V458.524H226.418H229.418V25.2344H226.418ZM226.418 458.524L228.899 460.211C270.372 399.181 308.305 344.887 332.878 310.06L330.427 308.33L327.975 306.601C303.387 341.449 265.434 395.772 223.937 456.838L226.418 458.524ZM330.427 308.33L332.971 306.741C325.789 295.245 318.192 283.08 310.157 270.212L307.612 271.801L305.068 273.39C313.103 286.258 320.7 298.424 327.882 309.92L330.427 308.33ZM307.612 271.801L309.201 274.346L321.076 266.931L319.487 264.387L317.898 261.842L306.023 269.256L307.612 271.801ZM319.487 264.387L316.943 265.976C323.827 277.002 330.39 287.511 336.645 297.523L339.189 295.934L341.734 294.344C335.479 284.332 328.916 273.824 322.032 262.798L319.487 264.387ZM339.189 295.934L341.638 297.668C347.696 289.114 352.538 282.316 355.928 277.58L353.488 275.834L351.049 274.088C347.652 278.834 342.805 285.64 336.741 294.2L339.189 295.934ZM353.488 275.834L355.928 277.58C357.71 275.089 359.095 273.166 360.043 271.855L357.612 270.097L355.182 268.338C354.226 269.659 352.835 271.592 351.049 274.088L353.488 275.834ZM357.612 270.097L360.043 271.855C360.518 271.198 360.885 270.692 361.141 270.344L358.725 268.566L356.308 266.789C356.035 267.16 355.655 267.684 355.182 268.338L357.612 270.097ZM358.725 268.566L361.142 270.343C361.266 270.175 361.376 270.027 361.461 269.914L359.068 268.104L356.676 266.295C356.57 266.435 356.443 266.605 356.308 266.789L358.725 268.566ZM359.068 268.104L361.461 269.915C361.504 269.858 361.55 269.797 361.596 269.738L359.246 267.874L356.896 266.01C356.804 266.126 356.721 266.234 356.676 266.294L359.068 268.104ZM359.246 267.874L361.597 269.738C361.623 269.705 361.662 269.656 361.711 269.599L359.429 267.651L357.147 265.704C357.026 265.846 356.931 265.965 356.896 266.01L359.246 267.874ZM359.429 267.651L361.702 269.609C361.701 269.61 361.707 269.603 361.721 269.587C361.735 269.572 361.751 269.554 361.768 269.534C361.806 269.493 361.839 269.455 361.859 269.434L359.657 267.396L357.456 265.359C357.365 265.456 357.228 265.609 357.156 265.693L359.429 267.651ZM359.657 267.396L361.818 269.477C361.806 269.49 361.82 269.475 361.87 269.427C361.914 269.386 361.97 269.333 362.033 269.275C362.166 269.153 362.294 269.041 362.378 268.972L360.478 266.65L358.577 264.329C358.201 264.637 357.708 265.096 357.496 265.316L359.657 267.396ZM360.478 266.65L362.088 269.182C361.751 269.396 361.536 269.408 361.704 269.375C361.8 269.356 361.992 269.33 362.281 269.32C362.855 269.3 363.641 269.348 364.511 269.523C366.298 269.882 368.036 270.685 369.141 272.024L371.454 270.113L373.767 268.203C371.481 265.435 368.275 264.16 365.694 263.641C364.38 263.377 363.126 263.286 362.07 263.323C361.544 263.342 361.023 263.394 360.542 263.489C360.133 263.569 359.476 263.732 358.867 264.119L360.478 266.65ZM371.454 270.113L368.49 270.578C368.593 271.232 368.585 272.07 368.509 272.858C368.473 273.237 368.424 273.564 368.381 273.8C368.322 274.12 368.304 274.095 368.382 273.903L371.165 275.022L373.948 276.142C374.117 275.723 374.22 275.22 374.281 274.888C374.358 274.473 374.429 273.974 374.481 273.432C374.583 272.377 374.628 270.987 374.418 269.648L371.454 270.113ZM371.165 275.022L368.44 273.767C368.416 273.819 368.374 273.906 368.327 274.001C368.304 274.046 368.283 274.087 368.266 274.119C368.247 274.156 368.24 274.169 368.243 274.165L370.874 275.605L373.505 277.046C373.598 276.878 373.775 276.526 373.89 276.278L371.165 275.022ZM370.874 275.605L368.262 274.13C368.252 274.147 368.234 274.178 368.213 274.214C368.204 274.231 368.194 274.247 368.187 274.26C368.183 274.267 368.18 274.272 368.177 274.276C368.175 274.28 368.173 274.282 368.174 274.282L370.745 275.827L373.317 277.372C373.36 277.301 373.437 277.169 373.486 277.081L370.874 275.605ZM370.745 275.827L368.178 274.275C368.119 274.373 368.058 274.465 368.033 274.502L370.531 276.163L373.029 277.824C373.065 277.77 373.184 277.592 373.312 277.38L370.745 275.827ZM370.531 276.163L368.033 274.503C367.96 274.613 367.86 274.758 367.749 274.919L370.217 276.625L372.685 278.331C372.804 278.158 372.927 277.978 373.03 277.824L370.531 276.163ZM370.217 276.625L367.749 274.919C367.516 275.257 367.163 275.761 366.69 276.433L369.143 278.16L371.595 279.887C372.071 279.213 372.436 278.69 372.685 278.331L370.217 276.625ZM369.143 278.16L366.69 276.433C365.741 277.779 364.288 279.829 362.298 282.624L364.742 284.364L367.186 286.104C369.178 283.306 370.638 281.247 371.595 279.888L369.143 278.16ZM364.742 284.364L362.298 282.624C358.506 287.951 352.753 295.996 344.803 307.07L347.24 308.819L349.677 310.569C357.629 299.492 363.388 291.44 367.186 286.104L364.742 284.364ZM347.24 308.819L344.696 310.409C397.917 395.581 427.217 442.251 441.781 465.33L444.318 463.729L446.855 462.127C432.298 439.06 403.004 392.4 349.784 307.23L347.24 308.819ZM444.318 463.729H447.318V20.5186H444.318H441.318V463.729H444.318ZM444.318 20.5186V23.5186H458.318V20.5186V17.5186H444.318V20.5186ZM458.318 20.5186H455.318V482.78H458.318H461.318V20.5186H458.318ZM458.318 482.78V479.78H456.438V482.78V485.78H458.318V482.78ZM456.438 482.78L453.955 484.463C453.947 484.452 453.942 484.444 453.94 484.441C453.939 484.439 453.937 484.437 453.941 484.443C453.944 484.446 453.951 484.458 453.959 484.47C453.968 484.484 453.981 484.503 453.997 484.526L456.473 482.832L458.948 481.138C458.959 481.153 458.966 481.164 458.97 481.169C458.972 481.174 458.974 481.176 458.971 481.171C458.969 481.168 458.962 481.158 458.955 481.147C458.947 481.134 458.936 481.117 458.922 481.098L456.438 482.78ZM456.473 482.832L454.779 480.356L449.001 484.309L450.695 486.785L452.389 489.261L458.167 485.308L456.473 482.832ZM450.695 486.785L449.001 484.309L443.225 488.263L444.919 490.738L446.613 493.214L452.39 489.261L450.695 486.785ZM444.919 490.738L447.395 489.044C445.301 485.985 420.577 446.929 341.019 319.62L338.475 321.21L335.931 322.8C415.424 450.005 440.257 489.237 442.443 492.432L444.919 490.738ZM338.475 321.21L336.022 319.482C308.82 358.087 267.19 417.79 222.731 483.564L225.217 485.244L227.702 486.924C272.134 421.191 313.741 361.521 340.927 322.938L338.475 321.21ZM225.217 485.244L222.731 483.564L217.343 491.537L219.828 493.217L222.314 494.897L227.702 486.924L225.217 485.244ZM219.828 493.217L222.192 491.369L216.266 483.787L213.902 485.635L211.539 487.482L217.464 495.064L219.828 493.217ZM213.902 485.635L216.266 483.787L56.0551 278.81L53.6914 280.657L51.3277 282.505L211.539 487.482L213.902 485.635ZM53.6914 280.657L56.0551 278.81L50.101 271.192L47.7373 273.039L45.3736 274.886L51.3277 282.505L53.6914 280.657ZM47.7373 273.039L48.7544 275.861L57.8511 272.583L56.834 269.761L55.8169 266.938L46.7202 270.217L47.7373 273.039ZM56.834 269.761L57.851 272.583C121.636 249.599 161.082 221.271 182.341 192.46L179.927 190.679L177.513 188.898C157.211 216.411 118.966 244.184 55.817 266.938L56.834 269.761ZM179.927 190.679L182.341 192.46C203.504 163.778 206.77 134.485 198.02 108.753L195.18 109.719L192.339 110.685C200.422 134.454 197.575 161.708 177.513 188.898L179.927 190.679ZM195.18 109.719L198.02 108.753C180.871 58.3181 116.821 20.0564 45.2881 28.3775L45.6348 31.3574L45.9814 34.3373C115.37 26.2657 176.299 63.5118 192.339 110.685L195.18 109.719ZM45.6348 31.3574H42.6348V482.774H45.6348H48.6348V31.3574H45.6348ZM45.6348 482.774L43.5135 480.653C42.1392 482.027 40.9113 482.582 39.9164 482.783C38.9 482.989 37.9101 482.867 36.9774 482.559C35.0197 481.912 33.6646 480.56 33.7673 480.663L31.6348 482.773L29.5022 484.883C29.6522 485.035 31.809 487.171 35.0953 488.256C36.7847 488.814 38.8499 489.12 41.1051 488.664C43.3819 488.204 45.6421 487.01 47.756 484.896L45.6348 482.774ZM31.6348 482.773H34.6348V19.2207H31.6348H28.6348V482.773H31.6348ZM31.6348 19.2207L32.0868 22.1864L38.0321 21.2802L37.5801 18.3145L37.128 15.3487L31.1827 16.255L31.6348 19.2207ZM212.418 150.243L209.454 149.78C207.007 165.457 200.372 181.497 188.778 197.209L191.192 198.99L193.606 200.771C205.718 184.357 212.772 167.425 215.382 150.706L212.418 150.243ZM191.192 198.99L188.778 197.209C167.309 226.306 129.031 254.072 69.5484 276.776L70.6182 279.579L71.688 282.382C131.806 259.435 171.221 231.109 193.606 200.771L191.192 198.99ZM70.6182 279.579L68.2545 281.427L210.054 462.849L212.418 461.002L214.782 459.155L72.9818 277.732L70.6182 279.579ZM212.418 461.002H215.418V150.243H212.418H209.418V461.002H212.418Z" fill="#D4089A"/>
</g>
</g>
<defs>
<filter id="filter0_d_10_59" x="24.6348" y="13.2523" width="440.684" height="493.061" filterUnits="userSpaceOnUse" color-interpolation-filters="sRGB">
<feFlood flood-opacity="0" result="BackgroundImageFix"/>
<feColorMatrix in="SourceAlpha" type="matrix" values="0 0 0 0 0 0 0 0 0 0 0 0 0 0 0 0 0 0 127 0" result="hardAlpha"/>
<feOffset dy="4"/>
<feGaussianBlur stdDeviation="2"/>
<feComposite in2="hardAlpha" operator="out"/>
<feColorMatrix type="matrix" values="0 0 0 0 0 0 0 0 0 0 0 0 0 0 0 0 0 0 0.25 0"/>
<feBlend mode="normal" in2="BackgroundImageFix" result="effect1_dropShadow_10_59"/>
<feBlend mode="normal" in="SourceGraphic" in2="effect1_dropShadow_10_59" result="shape"/>
</filter>
<clipPath id="clip0_10_59">
<rect width="500" height="494" fill="white"/>
</clipPath>
</defs>
</svg>
