<svg width="500" height="500" viewBox="0 0 500 500" fill="none" xmlns="http://www.w3.org/2000/svg">
<g clip-path="url(#clip0_212_2)">
<rect width="500" height="500" fill="white"/>
<circle cx="250" cy="250" r="250" fill="url(#paint0_linear_212_2)"/>
<path d="M459.069 169.117L454.227 174.844C431.69 201.488 408.971 215.882 385.5 222.48V426L371.57 429.862L291.286 296.21L228.354 394.181L255.711 420.605L261.105 425.815L250.684 436.604L245.289 431.395L220.086 407.051L205.311 430.054L191.5 426V379.438L141.61 331.25L141.124 434.537L126.124 434.462L126.678 316.827L113.289 303.895L118.5 291C121.322 291 124.089 290.91 126.801 290.74L127.112 224.848C119.656 228.122 112.042 231.976 104.263 236.488L97.7754 240.251L90.249 227.275L96.7373 223.513C106.3 217.966 115.677 213.331 124.879 209.49L124.833 209.368L127.189 208.477L127.194 207.463L129.837 207.476L138.864 204.065L138.911 204.189C170.865 193.384 200.503 191.921 228.063 194.247L228.143 193.804L233.512 194.757C259.802 197.458 284.178 203.334 306.854 207.423C329.542 211.514 350.386 213.853 370.5 210.48V210H373.158C374.336 209.772 375.513 209.525 376.687 209.255C398.453 204.254 420.242 191.795 442.773 165.156L447.617 159.431L459.069 169.117ZM206.5 400.446L209.084 396.423L206.5 393.927V400.446ZM240.192 210.654C234.935 233.151 223.59 254.679 206.5 271.568V373.072L217.351 383.553L285.189 277.946L297.93 278.138L370.5 398.948V225.663C348.497 228.894 326.38 226.186 304.192 222.186C283.275 218.414 262.15 213.519 240.192 210.654ZM191.5 284.096C177.831 293.684 161.561 300.682 142.799 303.948L142.823 304.155L141.737 304.282L141.708 310.489L191.5 358.583V284.096ZM191.5 208.782C175.795 209.894 159.517 212.924 142.478 218.82L142.428 229.406L142.427 229.405L142.396 235.887L142.061 235.885L141.811 288.882C161.671 285.13 178.293 276.598 191.5 265.036V208.782ZM206.5 248.753C215.348 236.84 221.601 223.234 225.148 209.057C219.01 208.567 212.798 208.286 206.5 208.274V248.753ZM131 30.5C174.584 30.5 206.106 47.2227 225.161 72.6562C243.188 96.7179 249.497 127.828 245.201 158.104C262.464 160.466 278.906 163.937 294.628 167.015C322.072 172.386 346.718 176.436 370.5 172.563V57.5H385.5V168.967C404.553 162.837 423.641 150.367 443.273 127.156L448.117 121.431L459.569 131.117L454.727 136.844C428.377 167.996 401.812 182.361 374.181 187.155C346.98 191.875 319.435 187.155 291.747 181.735C236.003 170.825 177.055 156.558 104.763 198.487L98.2754 202.251L90.749 189.275L97.2373 185.513C106.166 180.334 114.918 175.96 123.5 172.287V38L131 30.5ZM138.5 166.504C156.947 160.17 174.589 156.955 191.5 155.799V61.4805C177.73 52.5834 160.17 46.7739 138.5 45.6865V166.504ZM206.5 155.285C214.599 155.276 222.526 155.69 230.291 156.396C234.233 129.311 228.526 102.165 213.156 81.6504C211.119 78.9308 208.901 76.3146 206.5 73.8193V155.285Z" fill="white"/>
</g>
<defs>
<linearGradient id="paint0_linear_212_2" x1="250" y1="0" x2="250" y2="500" gradientUnits="userSpaceOnUse">
<stop stop-color="#AD0CFB"/>
<stop offset="0.633382" stop-color="#5E0DFF"/>
<stop offset="1" stop-color="#280C95"/>
</linearGradient>
<clipPath id="clip0_212_2">
<rect width="500" height="500" fill="white"/>
</clipPath>
</defs>
</svg>
