<svg width="500" height="500" viewBox="0 0 500 500" fill="none" xmlns="http://www.w3.org/2000/svg">
<rect width="500" height="500" fill="#1E1E1E"/>
<circle cx="250" cy="250" r="250" fill="url(#paint0_linear_0_1)"/>
<path d="M451.318 169.765L450.027 171.292C426.778 198.779 403.662 212.526 380 218.233V426L376.285 427.029L291.442 285.789L221.287 395.003L251.89 424.562L253.328 425.951L250.549 428.828L249.11 427.438L219.083 398.435L200.683 427.081L197 426V377.104L136.506 318.673L135.99 428.01L131.99 427.989L132.523 314.826L117.11 299.938L118.5 296.5C123.353 296.5 128.058 296.251 132.614 295.775L132.923 230.339L132.953 223.859L132.988 216.457C122.766 220.454 112.278 225.481 101.504 231.73L99.7734 232.733L97.7666 229.273L99.4961 228.271C110.579 221.843 121.381 216.677 131.925 212.578L131.922 212.568L133.009 212.157L133.01 211.99L133.445 211.992L135.664 211.154L135.667 211.164C170.646 198.323 202.716 197.145 232.593 200.195L232.596 200.181L232.803 200.217C258.648 202.874 282.852 208.684 305.879 212.836C331.039 217.373 354.744 219.939 377.918 214.615C401.022 209.307 423.801 196.103 446.973 168.708L448.265 167.182L451.318 169.765ZM201 419.186L216.149 395.601L201 380.968V419.186ZM235.864 204.575C231.249 228.593 219.477 251.712 201 269.234V375.406L218.354 392.169L289.817 280.919L293.215 280.97L376 418.785V219.12C352.903 223.813 329.443 221.149 305.169 216.772C282.976 212.771 260.061 207.347 235.864 204.575ZM197 272.848C181.227 286.422 161.052 296.083 136.717 299.316L136.72 299.334L136.597 299.348L136.532 313.137L197 371.543V272.848ZM132.595 299.798C129.577 300.102 126.499 300.31 123.361 300.415L132.55 309.29L132.595 299.798ZM197 202.975C177.942 203.781 158.016 207.212 136.995 214.936L136.926 229.885L136.923 230.359L136.616 295.295C161.277 291.932 181.496 281.731 197 267.493V202.975ZM231.874 204.146C221.82 203.126 211.542 202.595 201 202.843V263.626C217.184 247.155 227.599 226.075 231.874 204.146ZM201 81.9443C209.082 87.5796 215.941 94.276 221.585 101.767C238.65 124.413 244.463 154.092 239.778 183.013C258.314 185.328 276.015 189.074 293.071 192.412C320.877 197.854 346.802 202.177 372.057 197.795C373.373 197.567 374.687 197.312 376 197.035V63H380V196.113C402.406 190.495 424.508 177.267 446.973 150.708L448.265 149.182L451.318 151.765L450.027 153.292C424.393 183.599 398.929 197.192 372.74 201.736C346.666 206.261 320.06 201.771 292.304 196.338C245.547 187.186 195.044 175.266 136 197.307V197.922H134.373C123.705 202.006 112.758 207.203 101.504 213.73L99.7734 214.733L97.7666 211.273L99.4961 210.27C110.612 203.822 121.44 198.65 132 194.55V65L134 63C159.641 63 180.612 69.085 197 79.3037V63H201V81.9443ZM136 193.043C157.375 185.238 177.65 181.781 197 180.976V84.0625C181.409 73.7214 161.154 67.334 136 67.0127V193.043ZM201 180.845C212.94 180.567 224.527 181.268 235.805 182.539C240.393 154.471 234.733 125.862 218.391 104.174C213.552 97.7522 207.763 91.918 201 86.874V180.845Z" fill="white"/>
<defs>
<linearGradient id="paint0_linear_0_1" x1="250" y1="0" x2="250" y2="500" gradientUnits="userSpaceOnUse">
<stop stop-color="#AD0CFB"/>
<stop offset="0.633382" stop-color="#5E0DFF"/>
<stop offset="1" stop-color="#280C95"/>
</linearGradient>
</defs>
</svg>
