<svg width="500" height="494" viewBox="0 0 500 494" fill="none" xmlns="http://www.w3.org/2000/svg">
<g clip-path="url(#clip0_10_59)">
<rect width="500" height="494" fill="white"/>
<ellipse cx="250" cy="247" rx="250" ry="247" fill="#FF66CC"/>
<g filter="url(#filter0_d_10_59)">
<path d="M90.9736 68.5495C150.912 59.668 207.632 89.9612 223.278 133.937V75.4734H237.278V392.429C267.439 349.339 294.91 311.096 313.14 285.963C307.853 277.735 302.273 269.05 296.388 259.885L308.169 252.321C312.973 259.802 317.575 266.962 321.977 273.814C325.977 268.328 329.209 263.914 331.545 260.741C332.911 258.885 333.973 257.448 334.704 256.466C335.068 255.977 335.357 255.59 335.563 255.317C335.664 255.184 335.76 255.058 335.841 254.954C335.878 254.907 335.937 254.831 336.003 254.751C336.032 254.715 336.099 254.633 336.184 254.536C336.229 254.484 336.343 254.36 336.414 254.286C336.539 254.16 336.946 253.789 337.24 253.554C338.32 252.885 344.749 252.968 348.125 257.021C348.454 259.065 348.014 261.589 347.823 262.051C347.732 262.242 347.58 262.534 347.521 262.637C347.484 262.703 347.419 262.811 347.391 262.857C347.297 263.008 347.208 263.137 347.184 263.173C347.106 263.285 347.013 263.418 346.924 263.544C346.735 263.81 346.456 264.197 346.093 264.699C345.361 265.709 344.245 267.239 342.722 269.32C339.942 273.117 335.787 278.764 330.104 286.465C367.039 343.941 388.777 377.632 400.656 395.965V71.9665C407.63 71.9665 414.603 71.9659 414.656 71.9665V415.78H411.411L401.455 422.786C399.801 420.436 381.072 391.664 321.266 298.611C300.457 327.347 269.275 370.861 236.026 418.692L230.686 426.376L224.823 419.082L102.279 266.627L99 262.547V415.775C92.0217 422.753 85.0434 415.818 85 415.774V69.4343L90.9736 68.5495ZM223.278 181.554C220.413 189.706 216.021 197.857 209.958 205.847C193.206 227.924 163.902 248.596 119.314 265.472L223.278 394.814V181.554ZM210.201 138.944C197.978 103.99 151.816 76.2788 99 81.653V257.884L105.421 255.634C153.818 238.677 183.194 217.957 198.805 197.384C214.228 177.059 216.41 156.699 210.201 138.944Z" fill="#66CCFF"/>
<path d="M90.9736 68.5495L91.4132 71.5172L91.4134 71.5171L90.9736 68.5495ZM223.278 133.937L220.452 134.943L226.278 133.937H223.278ZM223.278 75.4734V72.4734H220.278V75.4734H223.278ZM237.278 75.4734H240.278V72.4734H237.278V75.4734ZM237.278 392.429H234.278V401.947L239.736 394.15L237.278 392.429ZM313.14 285.963L315.568 287.724L316.771 286.065L315.664 284.341L313.14 285.963ZM296.388 259.885L294.767 257.361L292.242 258.982L293.863 261.506L296.388 259.885ZM308.169 252.321L310.693 250.7L309.072 248.176L306.548 249.797L308.169 252.321ZM321.977 273.814L319.453 275.436L321.82 279.121L324.401 275.582L321.977 273.814ZM331.545 260.741L333.961 262.519H333.961L331.545 260.741ZM334.704 256.466L332.297 254.675V254.675L334.704 256.466ZM335.563 255.317L337.956 257.127L337.956 257.127L335.563 255.317ZM335.841 254.954L333.473 253.112L333.473 253.112L335.841 254.954ZM336.003 254.751L333.678 252.854H333.678L336.003 254.751ZM336.184 254.536L333.939 252.546L333.934 252.551L333.929 252.557L336.184 254.536ZM336.414 254.286L334.282 252.175L334.262 252.196L334.242 252.217L336.414 254.286ZM337.24 253.554L335.661 251.004L335.51 251.097L335.371 251.208L337.24 253.554ZM348.125 257.021L351.087 256.544L350.956 255.733L350.43 255.101L348.125 257.021ZM347.823 262.051L350.534 263.335L350.567 263.266L350.596 263.196L347.823 262.051ZM347.521 262.637L350.116 264.144L350.126 264.127L350.136 264.109L347.521 262.637ZM347.391 262.857L349.938 264.441L349.944 264.432L347.391 262.857ZM347.184 263.173L349.66 264.865L349.661 264.865L347.184 263.173ZM346.924 263.544L344.479 261.806L344.478 261.806L346.924 263.544ZM346.093 264.699L348.522 266.459L348.522 266.459L346.093 264.699ZM342.722 269.32L345.142 271.092H345.142L342.722 269.32ZM330.104 286.465L327.69 284.683L326.462 286.347L327.58 288.086L330.104 286.465ZM400.656 395.965L398.139 397.596L403.656 406.111V395.965H400.656ZM400.656 71.9665V68.9665L397.656 68.9665V71.9665H400.656ZM414.656 71.9665H417.656V69.0001L414.69 68.9667L414.656 71.9665ZM414.656 415.78V418.78H417.656V415.78H414.656ZM411.411 415.78V412.78H410.461L409.685 413.327L411.411 415.78ZM401.455 422.786L399.002 424.512L400.728 426.966L403.182 425.239L401.455 422.786ZM321.266 298.611L323.789 296.989L321.413 293.292L318.836 296.852L321.266 298.611ZM236.026 418.692L233.563 416.98L233.563 416.98L236.026 418.692ZM230.686 426.376L228.347 428.255L230.86 431.381L233.149 428.088L230.686 426.376ZM224.823 419.082L227.162 417.202L227.161 417.202L224.823 419.082ZM102.279 266.627L99.941 268.506L99.941 268.506L102.279 266.627ZM99 262.547L101.338 260.667L96 254.025V262.547H99ZM99 415.775L101.121 417.897L102 417.018V415.775H99ZM85 415.774H82V417.009L82.8687 417.885L85 415.774ZM85 69.4343L84.5605 66.4667L82 66.8459V69.4343H85ZM223.278 181.554H226.278L220.448 180.559L223.278 181.554ZM209.958 205.847L212.348 207.661L212.348 207.661L209.958 205.847ZM119.314 265.472L118.252 262.667L114.386 264.13L116.976 267.352L119.314 265.472ZM223.278 394.814L220.94 396.694L226.278 403.335V394.814H223.278ZM210.201 138.944L213.033 137.954V137.954L210.201 138.944ZM99 81.653L98.6963 78.6685L96 78.9428V81.653H99ZM99 257.884H96V262.113L99.9917 260.715L99 257.884ZM105.421 255.634L106.413 258.466L106.413 258.466L105.421 255.634ZM198.805 197.384L201.195 199.198L201.195 199.198L198.805 197.384ZM90.9736 68.5495L91.4134 71.5171C150.321 62.7884 205.406 92.6541 220.452 134.943L223.278 133.937L226.105 132.932C209.858 87.2683 151.504 56.5477 90.5339 65.5819L90.9736 68.5495ZM223.278 133.937H226.278V75.4734H223.278H220.278V133.937H223.278ZM223.278 75.4734V78.4734H237.278V75.4734V72.4734H223.278V75.4734ZM237.278 75.4734H234.278V392.429H237.278H240.278V75.4734H237.278ZM237.278 392.429L239.736 394.15C269.885 351.076 297.346 312.847 315.568 287.724L313.14 285.963L310.711 284.201C292.474 309.344 264.993 347.602 234.821 390.709L237.278 392.429ZM313.14 285.963L315.664 284.341C310.377 276.113 304.797 267.429 298.912 258.265L296.388 259.885L293.863 261.506C299.748 270.672 305.33 279.357 310.616 287.584L313.14 285.963ZM296.388 259.885L298.009 262.41L309.79 254.845L308.169 252.321L306.548 249.797L294.767 257.361L296.388 259.885ZM308.169 252.321L305.645 253.942C310.449 261.424 315.051 268.584 319.453 275.436L321.977 273.814L324.501 272.193C320.098 265.34 315.497 258.181 310.693 250.7L308.169 252.321ZM321.977 273.814L324.401 275.582C328.399 270.098 331.629 265.688 333.961 262.519L331.545 260.741L329.129 258.963C326.79 262.141 323.554 266.558 319.553 272.047L321.977 273.814ZM331.545 260.741L333.961 262.519C335.325 260.665 336.385 259.232 337.111 258.256L334.704 256.466L332.297 254.675C331.562 255.663 330.496 257.105 329.129 258.963L331.545 260.741ZM334.704 256.466L337.111 258.256C337.473 257.77 337.757 257.39 337.956 257.127L335.563 255.317L333.171 253.508C332.957 253.79 332.662 254.184 332.297 254.675L334.704 256.466ZM335.563 255.317L337.956 257.127C338.057 256.993 338.142 256.881 338.209 256.796L335.841 254.954L333.473 253.112C333.378 253.234 333.271 253.375 333.171 253.508L335.563 255.317ZM335.841 254.954L338.209 256.796C338.232 256.766 338.277 256.709 338.327 256.647L336.003 254.751L333.678 252.854C333.597 252.954 333.523 253.047 333.473 253.112L335.841 254.954ZM336.003 254.751L338.327 256.647C338.361 256.607 338.394 256.565 338.438 256.515L336.184 254.536L333.929 252.557C333.803 252.7 333.704 252.823 333.678 252.854L336.003 254.751ZM336.184 254.536L338.429 256.526C338.428 256.526 338.435 256.519 338.449 256.503C338.462 256.488 338.479 256.471 338.496 256.451C338.534 256.411 338.568 256.375 338.587 256.355L336.414 254.286L334.242 252.217C334.149 252.314 334.011 252.464 333.939 252.546L336.184 254.536ZM336.414 254.286L338.546 256.397C338.534 256.408 338.548 256.394 338.599 256.347C338.643 256.306 338.7 256.254 338.763 256.197C338.897 256.078 339.025 255.968 339.109 255.901L337.24 253.554L335.371 251.208C334.991 251.51 334.495 251.96 334.282 252.175L336.414 254.286ZM337.24 253.554L338.82 256.105C338.482 256.314 338.267 256.325 338.435 256.293C338.531 256.275 338.721 256.251 339.007 256.243C339.577 256.226 340.356 256.279 341.219 256.456C342.992 256.819 344.719 257.619 345.82 258.941L348.125 257.021L350.43 255.101C348.156 252.37 344.98 251.102 342.424 250.578C341.123 250.311 339.882 250.215 338.837 250.245C338.315 250.26 337.8 250.307 337.324 250.397C336.921 250.473 336.268 250.628 335.661 251.004L337.24 253.554ZM348.125 257.021L345.163 257.499C345.271 258.169 345.263 259.029 345.184 259.836C345.145 260.224 345.095 260.559 345.049 260.801C344.987 261.129 344.969 261.102 345.051 260.905L347.823 262.051L350.596 263.196C350.773 262.768 350.881 262.253 350.945 261.914C351.025 261.489 351.1 260.978 351.155 260.422C351.261 259.341 351.308 257.917 351.087 256.544L348.125 257.021ZM347.823 262.051L345.112 260.766C345.088 260.817 345.045 260.903 344.995 260.999C344.972 261.044 344.95 261.085 344.933 261.118C344.913 261.155 344.905 261.169 344.907 261.166L347.521 262.637L350.136 264.109C350.229 263.943 350.414 263.589 350.534 263.335L347.823 262.051ZM347.521 262.637L344.927 261.131C344.916 261.151 344.896 261.184 344.875 261.219C344.865 261.236 344.856 261.252 344.848 261.264C344.84 261.278 344.836 261.284 344.837 261.282L347.391 262.857L349.944 264.432C349.991 264.356 350.07 264.223 350.116 264.144L347.521 262.637ZM347.391 262.857L344.843 261.273C344.788 261.362 344.734 261.441 344.707 261.48L347.184 263.173L349.661 264.865C349.683 264.833 349.806 264.655 349.938 264.441L347.391 262.857ZM347.184 263.173L344.707 261.48C344.645 261.57 344.565 261.685 344.479 261.806L346.924 263.544L349.369 265.282C349.462 265.151 349.568 265.001 349.66 264.865L347.184 263.173ZM346.924 263.544L344.478 261.806C344.297 262.061 344.024 262.44 343.663 262.939L346.093 264.699L348.522 266.459C348.888 265.954 349.173 265.558 349.369 265.282L346.924 263.544ZM346.093 264.699L343.663 262.939C342.936 263.943 341.824 265.468 340.301 267.548L342.722 269.32L345.142 271.092C346.666 269.011 347.786 267.475 348.522 266.459L346.093 264.699ZM342.722 269.32L340.301 267.548C337.524 271.34 333.372 276.984 327.69 284.683L330.104 286.465L332.517 288.246C338.201 280.545 342.359 274.894 345.142 271.092L342.722 269.32ZM330.104 286.465L327.58 288.086C364.516 345.564 386.257 379.258 398.139 397.596L400.656 395.965L403.174 394.333C391.298 376.005 369.563 342.318 332.627 284.843L330.104 286.465ZM400.656 395.965H403.656V71.9665H400.656H397.656V395.965H400.656ZM400.656 71.9665V74.9665C404.143 74.9665 407.63 74.9664 410.251 74.9663C411.562 74.9663 412.657 74.9662 413.427 74.9663C414.218 74.9663 414.632 74.9664 414.623 74.9663L414.656 71.9665L414.69 68.9667C414.614 68.9659 407.607 68.9665 400.656 68.9665V71.9665ZM414.656 71.9665H411.656V415.78H414.656H417.656V71.9665H414.656ZM414.656 415.78V412.78H411.411V415.78V418.78H414.656V415.78ZM411.411 415.78L409.685 413.327L399.729 420.332L401.455 422.786L403.182 425.239L413.138 418.233L411.411 415.78ZM401.455 422.786L403.909 421.059C402.303 418.777 383.629 390.094 323.789 296.989L321.266 298.611L318.742 300.233C378.514 393.234 397.3 422.094 399.002 424.512L401.455 422.786ZM321.266 298.611L318.836 296.852C298.02 325.598 266.826 369.129 233.563 416.98L236.026 418.692L238.49 420.404C271.725 372.594 302.895 329.095 323.695 300.371L321.266 298.611ZM236.026 418.692L233.563 416.98L228.222 424.663L230.686 426.376L233.149 428.088L238.49 420.404L236.026 418.692ZM230.686 426.376L233.024 424.496L227.162 417.202L224.823 419.082L222.485 420.961L228.347 428.255L230.686 426.376ZM224.823 419.082L227.161 417.202L104.618 264.747L102.279 266.627L99.941 268.506L222.485 420.961L224.823 419.082ZM102.279 266.627L104.618 264.747L101.338 260.667L99 262.547L96.6617 264.426L99.941 268.506L102.279 266.627ZM99 262.547H96V415.775H99H102V262.547H99ZM99 415.775L96.8788 413.654C95.5041 415.028 94.2759 415.583 93.2808 415.784C92.2642 415.989 91.274 415.868 90.3411 415.559C88.3832 414.912 87.0284 413.559 87.1313 413.663L85 415.774L82.8687 417.885C83.0149 418.033 85.171 420.169 88.4577 421.256C90.1471 421.815 92.2126 422.121 94.4684 421.665C96.7458 421.206 99.0067 420.011 101.121 417.897L99 415.775ZM85 415.774H88V69.4343H85H82V415.774H85ZM85 69.4343L85.4395 72.4019L91.4132 71.5172L90.9736 68.5495L90.5341 65.5819L84.5605 66.4667L85 69.4343ZM223.278 181.554L220.448 180.559C217.694 188.394 213.458 196.272 207.568 204.034L209.958 205.847L212.348 207.661C218.584 199.442 223.131 191.018 226.109 182.549L223.278 181.554ZM209.958 205.847L207.568 204.034C191.275 225.506 162.533 245.906 118.252 262.667L119.314 265.472L120.376 268.278C165.271 251.285 195.136 230.343 212.348 207.661L209.958 205.847ZM119.314 265.472L116.976 267.352L220.94 396.694L223.278 394.814L225.617 392.935L121.653 263.593L119.314 265.472ZM223.278 394.814H226.278V181.554H223.278H220.278V394.814H223.278ZM210.201 138.944L213.033 137.954C200.238 101.363 152.516 73.1921 98.6963 78.6685L99 81.653L99.3037 84.6376C151.116 79.3655 195.719 106.618 207.369 139.934L210.201 138.944ZM99 81.653H96V257.884H99H102V81.653H99ZM99 257.884L99.9917 260.715L106.413 258.466L105.421 255.634L104.429 252.803L98.0083 255.052L99 257.884ZM105.421 255.634L106.413 258.466C155.116 241.401 185.096 220.413 201.195 199.198L198.805 197.384L196.415 195.571C181.292 215.501 152.519 235.953 104.429 252.803L105.421 255.634ZM198.805 197.384L201.195 199.198C217.186 178.124 219.595 156.718 213.033 137.954L210.201 138.944L207.369 139.934C213.225 156.679 211.269 175.995 196.415 195.571L198.805 197.384Z" fill="#CCFF66"/>
</g>
<g filter="url(#filter1_d_10_59)">
<path d="M105.974 68.5495C165.912 59.668 222.632 89.9611 238.278 133.937V75.4734H252.278V392.429C282.439 349.338 309.911 311.096 328.141 285.963C322.854 277.735 317.273 269.051 311.388 259.885L323.169 252.321C327.973 259.803 332.575 266.962 336.977 273.814C340.977 268.328 344.209 263.914 346.545 260.741C347.911 258.885 348.973 257.448 349.704 256.466C350.068 255.977 350.357 255.59 350.563 255.317C350.664 255.184 350.76 255.058 350.841 254.954C350.878 254.907 350.937 254.831 351.003 254.751C351.032 254.715 351.098 254.633 351.184 254.536C351.229 254.484 351.343 254.36 351.414 254.286C351.539 254.16 351.946 253.789 352.24 253.554C353.32 252.885 359.749 252.968 363.125 257.021C363.454 259.065 363.014 261.589 362.823 262.051C362.732 262.242 362.58 262.534 362.521 262.637C362.484 262.703 362.419 262.811 362.391 262.857C362.296 263.009 362.208 263.137 362.184 263.173C362.106 263.285 362.013 263.418 361.924 263.544C361.735 263.81 361.456 264.197 361.093 264.699C360.361 265.709 359.245 267.239 357.722 269.32C354.942 273.117 350.788 278.765 345.104 286.465C382.04 343.94 403.777 377.631 415.656 395.964V71.9665C422.63 71.9665 429.603 71.9659 429.656 71.9665V415.78H426.411L416.455 422.786C414.802 420.437 396.073 391.666 336.266 298.61C315.457 327.346 284.276 370.861 251.026 418.692L245.686 426.376L239.823 419.082L117.279 266.627L114 262.547V415.775C107.028 422.746 100.056 415.831 100 415.774V69.4343L105.974 68.5495ZM238.278 181.554C235.412 189.706 231.021 197.857 224.958 205.847C208.206 227.924 178.902 248.596 134.314 265.472L238.278 394.814V181.554ZM225.201 138.944C212.978 103.99 166.816 76.2788 114 81.6531V257.884L120.421 255.635C168.818 238.677 198.194 217.957 213.805 197.385C229.228 177.059 231.41 156.699 225.201 138.944Z" fill="#66CCFF"/>
<path d="M105.974 68.5495L106.413 71.5172L106.413 71.5171L105.974 68.5495ZM238.278 133.937L235.452 134.943L241.278 133.937H238.278ZM238.278 75.4734V72.4734H235.278V75.4734H238.278ZM252.278 75.4734H255.278V72.4734H252.278V75.4734ZM252.278 392.429H249.278V401.947L254.736 394.15L252.278 392.429ZM328.141 285.963L330.569 287.724L331.772 286.065L330.665 284.341L328.141 285.963ZM311.388 259.885L309.767 257.361L307.242 258.982L308.863 261.506L311.388 259.885ZM323.169 252.321L325.693 250.7L324.072 248.176L321.548 249.797L323.169 252.321ZM336.977 273.814L334.453 275.436L336.82 279.121L339.401 275.582L336.977 273.814ZM346.545 260.741L348.961 262.519L348.961 262.519L346.545 260.741ZM349.704 256.466L347.297 254.675V254.675L349.704 256.466ZM350.563 255.317L352.956 257.127L352.956 257.127L350.563 255.317ZM350.841 254.954L348.473 253.112L348.473 253.112L350.841 254.954ZM351.003 254.751L348.678 252.854L348.678 252.854L351.003 254.751ZM351.184 254.536L348.938 252.546L348.934 252.551L348.929 252.557L351.184 254.536ZM351.414 254.286L349.282 252.175L349.262 252.196L349.242 252.217L351.414 254.286ZM352.24 253.554L350.66 251.004L350.51 251.097L350.371 251.208L352.24 253.554ZM363.125 257.021L366.087 256.544L365.956 255.733L365.43 255.101L363.125 257.021ZM362.823 262.051L365.534 263.335L365.567 263.267L365.596 263.197L362.823 262.051ZM362.521 262.637L365.116 264.144L365.126 264.127L365.135 264.109L362.521 262.637ZM362.391 262.857L364.938 264.441L364.944 264.432L362.391 262.857ZM362.184 263.173L364.66 264.865L364.661 264.865L362.184 263.173ZM361.924 263.544L359.479 261.806L359.478 261.806L361.924 263.544ZM361.093 264.699L363.522 266.459L363.522 266.459L361.093 264.699ZM357.722 269.32L360.142 271.092L360.142 271.092L357.722 269.32ZM345.104 286.465L342.691 284.683L341.463 286.347L342.581 288.086L345.104 286.465ZM415.656 395.964L413.139 397.595L418.656 406.11V395.964H415.656ZM415.656 71.9665V68.9665L412.656 68.9665V71.9665H415.656ZM429.656 71.9665H432.656V69.0002L429.69 68.9667L429.656 71.9665ZM429.656 415.78V418.78H432.656V415.78H429.656ZM426.411 415.78V412.78H425.461L424.685 413.327L426.411 415.78ZM416.455 422.786L414.002 424.512L415.728 426.966L418.182 425.239L416.455 422.786ZM336.266 298.61L338.789 296.988L336.413 293.291L333.836 296.851L336.266 298.61ZM251.026 418.692L248.563 416.98L248.563 416.98L251.026 418.692ZM245.686 426.376L243.347 428.255L245.86 431.381L248.149 428.088L245.686 426.376ZM239.823 419.082L242.162 417.202L242.161 417.202L239.823 419.082ZM117.279 266.627L114.941 268.506L114.941 268.506L117.279 266.627ZM114 262.547L116.338 260.667L111 254.025V262.547H114ZM114 415.775L116.121 417.897L117 417.018V415.775H114ZM100 415.774H97V417.012L97.8727 417.889L100 415.774ZM100 69.4343L99.5605 66.4667L97 66.8459V69.4343H100ZM238.278 181.554H241.278L235.448 180.559L238.278 181.554ZM224.958 205.847L227.348 207.661H227.348L224.958 205.847ZM134.314 265.472L133.252 262.667L129.386 264.13L131.976 267.352L134.314 265.472ZM238.278 394.814L235.94 396.694L241.278 403.335V394.814H238.278ZM225.201 138.944L228.033 137.954L228.033 137.954L225.201 138.944ZM114 81.6531L113.696 78.6685L111 78.9428V81.6531H114ZM114 257.884H111V262.113L114.992 260.715L114 257.884ZM120.421 255.635L121.413 258.466L121.413 258.466L120.421 255.635ZM213.805 197.385L216.195 199.198L216.195 199.198L213.805 197.385ZM105.974 68.5495L106.413 71.5171C165.321 62.7884 220.406 92.6541 235.452 134.943L238.278 133.937L241.105 132.932C224.858 87.2682 166.504 56.5476 105.534 65.5819L105.974 68.5495ZM238.278 133.937H241.278V75.4734H238.278H235.278V133.937H238.278ZM238.278 75.4734V78.4734H252.278V75.4734V72.4734H238.278V75.4734ZM252.278 75.4734H249.278V392.429H252.278H255.278V75.4734H252.278ZM252.278 392.429L254.736 394.15C284.885 351.076 312.347 312.847 330.569 287.724L328.141 285.963L325.712 284.201C307.475 309.344 279.993 347.601 249.821 390.709L252.278 392.429ZM328.141 285.963L330.665 284.341C325.378 276.112 319.797 267.429 313.912 258.265L311.388 259.885L308.863 261.506C314.749 270.672 320.331 279.357 325.617 287.584L328.141 285.963ZM311.388 259.885L313.009 262.41L324.79 254.845L323.169 252.321L321.548 249.797L309.767 257.361L311.388 259.885ZM323.169 252.321L320.645 253.942C325.449 261.424 330.051 268.584 334.453 275.436L336.977 273.814L339.501 272.193C335.098 265.34 330.497 258.181 325.693 250.7L323.169 252.321ZM336.977 273.814L339.401 275.582C343.399 270.098 346.629 265.688 348.961 262.519L346.545 260.741L344.129 258.963C341.79 262.141 338.554 266.558 334.553 272.047L336.977 273.814ZM346.545 260.741L348.961 262.519C350.326 260.665 351.385 259.232 352.111 258.256L349.704 256.466L347.297 254.675C346.562 255.663 345.496 257.105 344.129 258.963L346.545 260.741ZM349.704 256.466L352.111 258.256C352.473 257.77 352.757 257.39 352.956 257.127L350.563 255.317L348.171 253.508C347.957 253.79 347.662 254.184 347.297 254.675L349.704 256.466ZM350.563 255.317L352.956 257.127C353.057 256.993 353.142 256.882 353.209 256.796L350.841 254.954L348.473 253.112C348.378 253.234 348.271 253.375 348.171 253.508L350.563 255.317ZM350.841 254.954L353.209 256.796C353.232 256.766 353.277 256.709 353.327 256.647L351.003 254.751L348.678 252.854C348.597 252.954 348.523 253.047 348.473 253.112L350.841 254.954ZM351.003 254.751L353.327 256.647C353.361 256.607 353.394 256.565 353.438 256.515L351.184 254.536L348.929 252.557C348.803 252.7 348.704 252.823 348.678 252.854L351.003 254.751ZM351.184 254.536L353.429 256.526C353.428 256.526 353.435 256.519 353.449 256.503C353.462 256.489 353.479 256.471 353.496 256.451C353.534 256.411 353.568 256.375 353.587 256.355L351.414 254.286L349.242 252.217C349.149 252.314 349.011 252.465 348.938 252.546L351.184 254.536ZM351.414 254.286L353.546 256.397C353.534 256.408 353.548 256.394 353.599 256.347C353.643 256.306 353.7 256.254 353.763 256.197C353.897 256.078 354.025 255.968 354.109 255.901L352.24 253.554L350.371 251.208C349.991 251.51 349.495 251.96 349.282 252.175L351.414 254.286ZM352.24 253.554L353.82 256.105C353.482 256.314 353.267 256.325 353.435 256.293C353.531 256.275 353.721 256.251 354.007 256.243C354.577 256.226 355.356 256.279 356.219 256.456C357.992 256.819 359.718 257.619 360.82 258.941L363.125 257.021L365.43 255.101C363.156 252.37 359.98 251.102 357.424 250.578C356.123 250.311 354.881 250.215 353.836 250.245C353.315 250.26 352.8 250.307 352.324 250.397C351.92 250.473 351.268 250.628 350.66 251.004L352.24 253.554ZM363.125 257.021L360.163 257.499C360.271 258.169 360.263 259.029 360.184 259.836C360.145 260.224 360.095 260.559 360.049 260.801C359.987 261.129 359.969 261.102 360.051 260.904L362.823 262.051L365.596 263.197C365.773 262.769 365.881 262.253 365.945 261.914C366.025 261.489 366.1 260.979 366.155 260.423C366.261 259.342 366.308 257.917 366.087 256.544L363.125 257.021ZM362.823 262.051L360.112 260.766C360.088 260.817 360.045 260.903 359.995 260.999C359.972 261.044 359.95 261.085 359.933 261.118C359.913 261.155 359.905 261.169 359.907 261.165L362.521 262.637L365.135 264.109C365.229 263.943 365.414 263.589 365.534 263.335L362.823 262.051ZM362.521 262.637L359.927 261.131C359.916 261.151 359.896 261.184 359.875 261.22C359.865 261.237 359.856 261.252 359.848 261.264C359.84 261.278 359.836 261.283 359.837 261.282L362.391 262.857L364.944 264.432C364.991 264.356 365.07 264.223 365.116 264.144L362.521 262.637ZM362.391 262.857L359.843 261.273C359.787 261.362 359.734 261.441 359.706 261.48L362.184 263.173L364.661 264.865C364.682 264.833 364.805 264.655 364.938 264.441L362.391 262.857ZM362.184 263.173L359.707 261.48C359.645 261.57 359.565 261.685 359.479 261.806L361.924 263.544L364.369 265.282C364.462 265.151 364.568 265.001 364.66 264.865L362.184 263.173ZM361.924 263.544L359.478 261.806C359.297 262.061 359.024 262.44 358.663 262.939L361.093 264.699L363.522 266.459C363.888 265.954 364.173 265.558 364.369 265.282L361.924 263.544ZM361.093 264.699L358.663 262.939C357.936 263.943 356.824 265.468 355.301 267.548L357.722 269.32L360.142 271.092C361.667 269.01 362.786 267.475 363.522 266.459L361.093 264.699ZM357.722 269.32L355.301 267.548C352.524 271.34 348.373 276.984 342.691 284.683L345.104 286.465L347.518 288.246C353.202 280.545 357.359 274.894 360.142 271.092L357.722 269.32ZM345.104 286.465L342.581 288.086C379.517 345.563 401.256 379.257 413.139 397.595L415.656 395.964L418.174 394.332C406.298 376.004 384.563 342.317 347.628 284.843L345.104 286.465ZM415.656 395.964H418.656V71.9665H415.656H412.656V395.964H415.656ZM415.656 71.9665V74.9665C419.143 74.9665 422.63 74.9664 425.252 74.9663C426.562 74.9663 427.657 74.9663 428.427 74.9663C429.218 74.9663 429.632 74.9664 429.622 74.9663L429.656 71.9665L429.69 68.9667C429.615 68.9659 422.607 68.9665 415.656 68.9665V71.9665ZM429.656 71.9665H426.656V415.78H429.656H432.656V71.9665H429.656ZM429.656 415.78V412.78H426.411V415.78V418.78H429.656V415.78ZM426.411 415.78L424.685 413.327L414.729 420.332L416.455 422.786L418.182 425.239L428.138 418.233L426.411 415.78ZM416.455 422.786L418.909 421.059C417.304 418.779 398.631 390.096 338.789 296.988L336.266 298.61L333.742 300.232C393.516 393.236 412.301 422.096 414.002 424.512L416.455 422.786ZM336.266 298.61L333.836 296.851C313.02 325.597 281.826 369.128 248.563 416.98L251.026 418.692L253.49 420.404C286.725 372.593 317.895 329.094 338.695 300.37L336.266 298.61ZM251.026 418.692L248.563 416.98L243.222 424.663L245.686 426.376L248.149 428.088L253.49 420.404L251.026 418.692ZM245.686 426.376L248.024 424.496L242.162 417.202L239.823 419.082L237.485 420.961L243.347 428.255L245.686 426.376ZM239.823 419.082L242.161 417.202L119.618 264.747L117.279 266.627L114.941 268.506L237.485 420.961L239.823 419.082ZM117.279 266.627L119.618 264.747L116.338 260.667L114 262.547L111.662 264.426L114.941 268.506L117.279 266.627ZM114 262.547H111V415.775H114H117V262.547H114ZM114 415.775L111.879 413.654C110.505 415.027 109.278 415.582 108.284 415.784C107.268 415.989 106.278 415.868 105.346 415.561C103.39 414.916 102.034 413.565 102.127 413.659L100 415.774L97.8727 417.889C98.022 418.04 100.18 420.175 103.467 421.259C105.156 421.816 107.221 422.121 109.475 421.664C111.75 421.203 114.009 420.009 116.121 417.897L114 415.775ZM100 415.774H103V69.4343H100H97V415.774H100ZM100 69.4343L100.44 72.4019L106.413 71.5172L105.974 68.5495L105.534 65.5819L99.5605 66.4667L100 69.4343ZM238.278 181.554L235.448 180.559C232.694 188.394 228.458 196.272 222.568 204.034L224.958 205.847L227.348 207.661C233.584 199.442 238.131 191.018 241.109 182.549L238.278 181.554ZM224.958 205.847L222.568 204.034C206.275 225.506 177.533 245.906 133.252 262.667L134.314 265.472L135.376 268.278C180.271 251.285 210.136 230.343 227.348 207.661L224.958 205.847ZM134.314 265.472L131.976 267.352L235.94 396.694L238.278 394.814L240.617 392.935L136.653 263.593L134.314 265.472ZM238.278 394.814H241.278V181.554H238.278H235.278V394.814H238.278ZM225.201 138.944L228.033 137.954C215.238 101.363 167.516 73.1921 113.696 78.6685L114 81.6531L114.304 84.6376C166.116 79.3655 210.719 106.618 222.369 139.934L225.201 138.944ZM114 81.6531H111V257.884H114H117V81.6531H114ZM114 257.884L114.992 260.715L121.413 258.466L120.421 255.635L119.429 252.803L113.008 255.052L114 257.884ZM120.421 255.635L121.413 258.466C170.116 241.401 200.096 220.413 216.195 199.198L213.805 197.385L211.415 195.571C196.292 215.501 167.519 235.953 119.429 252.803L120.421 255.635ZM213.805 197.385L216.195 199.198C232.186 178.124 234.595 156.718 228.033 137.954L225.201 138.944L222.369 139.934C228.225 156.679 226.269 175.995 211.415 195.571L213.805 197.385Z" fill="black"/>
</g>
</g>
<defs>
<filter id="filter0_d_10_59" x="78" y="64.0037" width="343.656" height="375.378" filterUnits="userSpaceOnUse" color-interpolation-filters="sRGB">
<feFlood flood-opacity="0" result="BackgroundImageFix"/>
<feColorMatrix in="SourceAlpha" type="matrix" values="0 0 0 0 0 0 0 0 0 0 0 0 0 0 0 0 0 0 127 0" result="hardAlpha"/>
<feOffset dy="4"/>
<feGaussianBlur stdDeviation="2"/>
<feComposite in2="hardAlpha" operator="out"/>
<feColorMatrix type="matrix" values="0 0 0 0 0 0 0 0 0 0 0 0 0 0 0 0 0 0 0.25 0"/>
<feBlend mode="normal" in2="BackgroundImageFix" result="effect1_dropShadow_10_59"/>
<feBlend mode="normal" in="SourceGraphic" in2="effect1_dropShadow_10_59" result="shape"/>
</filter>
<filter id="filter1_d_10_59" x="93" y="64.0037" width="343.656" height="375.378" filterUnits="userSpaceOnUse" color-interpolation-filters="sRGB">
<feFlood flood-opacity="0" result="BackgroundImageFix"/>
<feColorMatrix in="SourceAlpha" type="matrix" values="0 0 0 0 0 0 0 0 0 0 0 0 0 0 0 0 0 0 127 0" result="hardAlpha"/>
<feOffset dy="4"/>
<feGaussianBlur stdDeviation="2"/>
<feComposite in2="hardAlpha" operator="out"/>
<feColorMatrix type="matrix" values="0 0 0 0 0 0 0 0 0 0 0 0 0 0 0 0 0 0 0.25 0"/>
<feBlend mode="normal" in2="BackgroundImageFix" result="effect1_dropShadow_10_59"/>
<feBlend mode="normal" in="SourceGraphic" in2="effect1_dropShadow_10_59" result="shape"/>
</filter>
<clipPath id="clip0_10_59">
<rect width="500" height="494" fill="white"/>
</clipPath>
</defs>
</svg>
