<svg xmlns="http://www.w3.org/2000/svg" fill="none" viewBox="0 0 500 500"><circle cx="250" cy="250" r="245.5" fill="#f5f5f5"/><circle cx="250" cy="250" r="245.5" stroke="#7ddc1f" stroke-width="9"/><circle cx="250" cy="250" r="245.5" stroke="#000" stroke-width="9"/><g filter="url(#a)"><path fill="#0073e5" d="M90.956 82.314c56.475-8.518 109.921 20.009 125.735 61.746V89.236h14v306.258a7711 7711 0 0 1 71.562-102.205c-5.022-7.956-10.323-16.353-15.911-25.212l11.842-7.469c4.469 7.085 8.754 13.872 12.858 20.374a3757 3757 0 0 1 8.788-12.222c1.301-1.799 2.314-3.193 3.01-4.146.346-.474.622-.85.819-1.115a36 36 0 0 1 .424-.556c.029-.035.094-.117.178-.215.045-.051.157-.176.227-.251.123-.126.528-.502.822-.74 1.085-.684 7.556-.622 10.942 3.465.319 2.011-.107 4.496-.292 4.952-.089.191-.238.48-.295.583l-.128.219c-.092.15-.177.277-.201.312-.075.111-.165.241-.25.364q-.273.389-.793 1.121c-.697.979-1.76 2.464-3.211 4.481-2.639 3.669-6.578 9.12-11.963 16.546 34.494 54.637 55.06 87.089 66.501 105.068V85.836h14v333.301h-3.277l-4.176 2.886-5.758 3.982c-1.573-2.275-19.354-30.079-76.082-119.922-19.815 27.859-49.362 69.835-80.854 115.951l-5.372 7.865-5.903-7.474-116.706-147.794L99 271.474v147.658c-6.989 6.987-13.977.022-14-.001V83.213zm125.735 111.633c-2.731 7.303-6.712 14.596-12.051 21.758-15.959 21.407-43.839 41.44-86.199 57.8l98.25 124.421zM204.243 150.8C192.655 117.068 148.983 90.35 99 95.408v170.301l5.634-2.009c46.041-16.421 73.956-36.474 88.782-56.362 14.651-19.654 16.73-39.356 10.827-56.538"/><path fill="#7ddc1f" d="m90.956 82.314-.447-2.966zm125.735 61.746-2.805 1.063 5.805-1.063zm0-54.824v-3h-3v3zm14 0h3v-3h-3zm0 306.258h-3v9.655l5.472-7.955zm71.562-102.205 2.443 1.741 1.168-1.64-1.074-1.702zm-15.911-25.212-1.601-2.537-2.537 1.6 1.6 2.538zm11.842-7.469 2.537-1.6-1.601-2.538-2.537 1.601zm12.858 20.374-2.537 1.601 2.379 3.77 2.597-3.624zm8.788-12.222-2.431-1.758zm3.01-4.146-2.422-1.77zm.819-1.115 2.408 1.789zm.267-.355-2.384-1.821zm.157-.201-2.341-1.876zm.178-.215-2.263-1.969-.009.01zm.227-.251-2.151-2.091-.02.021-.02.021zm.822-.74-1.601-2.537-.15.095-.139.112zm10.942 3.465 2.963-.469-.129-.812-.524-.633zm-.292 4.952 2.72 1.267.031-.068.028-.069zm-.295.583 2.606 1.487.01-.017.009-.017zm-.128.219 2.56 1.564.006-.009zm-.201.312 2.49 1.673.001-.001zm-.25.364 2.46 1.717zm-.793 1.121 2.444 1.739zm-3.211 4.481 2.435 1.752zm-11.963 16.546-2.429-1.761-1.192 1.645 1.084 1.718zm66.501 105.068-2.531 1.61 5.531 8.691v-10.301zm0-313.012v-3h-3v3zm14 0h3V82.87l-2.965-.034zm0 333.301v3h3v-3zm-3.277 0v-3h-.936l-.77.532zm-4.176 2.886-1.706-2.467zm-5.758 3.982-2.468 1.706 1.707 2.468 2.467-1.707zm-76.082-119.922 2.537-1.602-2.389-3.782-2.593 3.645zm-80.854 115.951 2.477 1.692zm-5.372 7.865-2.355 1.859 2.53 3.204 2.302-3.371zm-5.903-7.474 2.355-1.86zM101.492 274.631l-2.354 1.859zM99 271.474l2.354-1.859L96 262.834v8.64zm0 147.658 2.121 2.121.879-.879v-1.242zm-14-.001h-3v1.224l.856.875zm0-335.918-.448-2.967-2.552.385v2.582zm131.691 110.734h3l-5.809-1.051zm-12.051 21.758 2.405 1.793zm-86.199 57.8-1.08-2.799-3.795 1.466 2.521 3.192zm98.25 124.421-2.354 1.859 5.354 6.781v-8.64zM204.243 150.8l2.837-.975zM99 95.408l-.302-2.985-2.698.273v2.712zm0 170.301h-3v4.255l4.008-1.429zm5.634-2.009 1.007 2.826h.001zm88.782-56.362 2.405 1.793zM90.956 82.314l.447 2.967c55.41-8.358 107.279 19.716 122.483 59.842l2.805-1.063 2.806-1.063c-16.425-43.349-71.447-72.328-128.988-63.65zm125.735 61.746h3V89.236h-6v54.824zm0-54.824v3h14v-6h-14zm14 0h-3v306.258h6V89.236zm0 306.258 2.472 1.7a7711 7711 0 0 1 71.533-102.164l-2.443-1.741-2.443-1.741a7710 7710 0 0 0-71.59 102.246zm71.562-102.205 2.537-1.601c-5.022-7.957-10.322-16.353-15.911-25.212l-2.537 1.601-2.538 1.601c5.589 8.86 10.89 17.256 15.912 25.212zm-15.911-25.212 1.6 2.537 11.842-7.468-1.6-2.538-1.601-2.537-11.842 7.469zm11.842-7.469-2.538 1.601c4.47 7.085 8.756 13.873 12.859 20.374l2.537-1.601 2.537-1.601c-4.104-6.503-8.389-13.289-12.858-20.373zm12.858 20.374 2.439 1.747c3.659-5.107 6.622-9.227 8.78-12.212l-2.431-1.757-2.431-1.758a3636 3636 0 0 0-8.796 12.233zm8.788-12.222 2.431 1.757c1.299-1.796 2.309-3.186 3.001-4.133l-2.422-1.77-2.422-1.77c-.701.958-1.717 2.356-3.019 4.158zm3.01-4.146 2.422 1.77q.52-.712.805-1.096l-2.408-1.789-2.408-1.789c-.205.276-.487.66-.833 1.134zm.819-1.115 2.408 1.789c.091-.122.175-.234.243-.322l-2.384-1.822-2.384-1.821c-.088.115-.189.25-.291.387zm.267-.355 2.383 1.822.115-.147-2.341-1.876-2.341-1.876c-.084.105-.157.2-.2.256zm.157-.201 2.341 1.876q.043-.054.109-.131l-2.272-1.96-2.272-1.959c-.123.143-.219.263-.247.298zm.178-.215 2.263 1.97.018-.021.046-.051.091-.099-2.191-2.05-2.191-2.049c-.089.095-.226.247-.299.331zm.227-.251 2.151 2.092.053-.05c.043-.042.1-.094.163-.152.133-.121.26-.231.344-.299l-1.889-2.331-1.89-2.33c-.379.307-.872.762-1.083.979zm.822-.74 1.6 2.538c-.338.213-.554.225-.386.192.096-.019.287-.044.575-.054a10 10 0 0 1 2.223.208c1.782.361 3.516 1.162 4.62 2.495l2.31-1.914 2.31-1.914c-2.282-2.754-5.477-4.027-8.048-4.548a16 16 0 0 0-3.611-.323 10 10 0 0 0-1.522.16c-.407.079-1.063.239-1.672.623zm10.942 3.465-2.963.469c.105.661.096 1.507.02 2.302-.037.383-.086.712-.13.951-.06.323-.078.296.002.101l2.779 1.129 2.779 1.13c.172-.424.277-.932.339-1.266.078-.419.15-.921.203-1.469.103-1.064.148-2.466-.066-3.816zm-.292 4.952-2.72-1.266a8 8 0 0 1-.113.23l-.061.118-.026.049 2.625 1.452 2.625 1.453c.09-.163.271-.515.39-.769zm-.295.583-2.606-1.486-.051.089-.026.044-.01.017 2.565 1.555 2.566 1.555c.046-.076.123-.209.168-.287zm-.128.219-2.56-1.564c-.055.09-.109.171-.132.204l2.491 1.672 2.491 1.672c.025-.037.142-.21.27-.42zm-.201.312-2.491-1.672c-.058.087-.135.199-.219.318l2.46 1.718 2.46 1.717c.087-.125.19-.273.28-.408zm-.25.364-2.46-1.718q-.259.37-.777 1.1l2.444 1.739 2.444 1.739c.347-.487.62-.872.809-1.143zm-.793 1.121-2.444-1.739c-.693.973-1.753 2.453-3.202 4.468l2.435 1.752 2.435 1.752c1.453-2.019 2.519-3.509 3.22-4.494zm-3.211 4.481-2.435-1.752a5666 5666 0 0 1-11.957 16.537l2.429 1.761 2.429 1.761a5708 5708 0 0 0 11.969-16.555zm-11.963 16.546-2.537 1.602c34.495 54.638 55.063 87.093 66.507 105.076l2.531-1.61 2.531-1.611c-11.438-17.974-32.002-50.422-66.495-105.058zm66.501 105.068h3V85.836h-6v313.012zm0-313.012v3h13.965l.035-3 .035-3H385.62zm14 0h-3v333.301h6V85.836zm0 333.301v-3h-3.277v6h3.277zm-3.277 0-1.706-2.468-4.176 2.887 1.706 2.467 1.706 2.468 4.176-2.887zm-4.176 2.886-1.706-2.467-5.758 3.981 1.706 2.468 1.706 2.467 5.758-3.981zm-5.758 3.982 2.468-1.706c-1.526-2.207-19.253-29.923-76.013-119.818l-2.537 1.602-2.537 1.602c56.695 89.791 74.532 117.683 76.151 120.026zm-76.082-119.922-2.445-1.739c-19.823 27.87-49.38 69.862-80.887 115.998l2.478 1.692 2.477 1.692c31.479-46.096 61.014-88.056 80.822-115.904zm-80.854 115.951-2.478-1.692-5.372 7.865 2.478 1.692 2.477 1.692 5.372-7.865zm-5.372 7.865 2.354-1.859-5.902-7.475-2.355 1.86-2.354 1.859 5.902 7.474zm-5.903-7.474 2.355-1.86-116.706-147.793-2.355 1.859-2.354 1.859 116.706 147.794zM101.492 274.631l2.355-1.859-2.493-3.157L99 271.474l-2.355 1.86 2.493 3.156zM99 271.474h-3v147.658h6V271.474zm0 147.658-2.121-2.122c-1.377 1.377-2.607 1.931-3.603 2.132-1.018.204-2.01.081-2.943-.229-1.962-.651-3.315-2.009-3.19-1.881L85 419.131l-2.144 2.099c.148.15 2.301 2.287 5.587 3.378 1.69.56 3.757.87 6.015.416 2.281-.458 4.546-1.653 6.663-3.771zm-14-.001h3V83.213h-6V419.13zm0-335.918.448 2.966 5.956-.898-.448-2.967-.447-2.966-5.957.898zm131.691 110.734-2.809-1.051c-2.626 7.019-6.466 14.065-11.648 21.016l2.406 1.793 2.405 1.793c5.496-7.372 9.618-14.913 12.456-22.5zm-12.051 21.758-2.406-1.793c-15.505 20.8-42.828 40.555-84.873 56.794l1.08 2.799 1.081 2.798c42.673-16.481 71.111-36.79 87.523-58.805zm-86.199 57.8-2.354 1.859 98.25 124.421 2.354-1.859 2.355-1.86-98.25-124.42zm98.25 124.421h3V193.947h-6v203.979zM204.243 150.8l2.837-.975c-12.145-35.353-57.359-62.564-108.382-57.402L99 95.408l.302 2.985c48.944-4.952 91.073 21.271 102.104 53.381zM99 95.408h-3v170.301h6V95.408zm0 170.301 1.008 2.826 5.633-2.009-1.007-2.826-1.008-2.826-5.634 2.009zm5.634-2.009 1.008 2.826c46.354-16.533 74.871-36.861 90.179-57.395l-2.405-1.793-2.405-1.793c-14.344 19.241-41.658 39.021-87.385 55.329zm88.782-56.362 2.405 1.793c15.209-20.402 17.503-41.132 11.259-59.306l-2.837.975-2.837.974c5.562 16.191 3.699 34.864-10.395 53.771z"/></g><g filter="url(#b)"><path fill="#f5f5f5" d="M105.956 82.314c56.475-8.519 109.921 20.008 125.735 61.746V89.235h14v306.258a7718 7718 0 0 1 71.562-102.205c-5.022-7.956-10.323-16.352-15.911-25.212l11.842-7.469c4.469 7.085 8.754 13.872 12.858 20.374a3757 3757 0 0 1 8.788-12.222c1.301-1.799 2.314-3.193 3.01-4.146.346-.474.622-.85.819-1.115a26 26 0 0 1 .424-.556c.029-.035.094-.117.178-.214.045-.052.157-.177.227-.251.124-.127.528-.503.822-.741 1.085-.684 7.556-.621 10.942 3.465.319 2.011-.107 4.496-.292 4.952-.089.191-.238.48-.295.583l-.128.219c-.092.15-.177.277-.201.313-.075.111-.165.241-.25.363q-.273.39-.793 1.121c-.697.979-1.76 2.464-3.211 4.481a5661 5661 0 0 1-11.964 16.546c34.494 54.638 55.061 87.09 66.502 105.069V85.835h14v333.301h-3.277l-4.176 2.886-5.758 3.982c-1.573-2.275-19.355-30.079-76.082-119.921-19.815 27.859-49.362 69.835-80.854 115.95l-5.372 7.865-5.903-7.474L116.492 274.63 114 271.474v147.657c-7 6.999-14-.001-14-.001V83.212zm125.735 111.632c-2.731 7.303-6.712 14.596-12.051 21.758-15.959 21.408-43.839 41.44-86.199 57.8l98.25 124.421zm-12.448-43.147c-11.588-33.732-55.26-60.45-105.243-55.392v170.301l5.634-2.009c46.041-16.421 73.956-36.474 88.782-56.362 14.651-19.654 16.73-39.356 10.827-56.538"/><path fill="#000" d="m105.956 82.314-.447-2.967zm125.735 61.746-2.805 1.063 5.805-1.063zm0-54.825v-3h-3v3zm14 0h3v-3h-3zm0 306.258h-3v9.655l5.472-7.955zm71.562-102.205 2.443 1.741 1.168-1.64-1.074-1.702zm-15.911-25.212-1.601-2.537-2.537 1.6 1.6 2.538zm11.842-7.469 2.537-1.6-1.601-2.537-2.537 1.6zm12.858 20.374-2.537 1.602 2.379 3.77 2.597-3.624zm8.788-12.222-2.431-1.758zm3.01-4.146-2.422-1.77zm.819-1.115 2.408 1.789zm.267-.354-2.384-1.822zm.157-.202 2.341 1.877zm.178-.214-2.263-1.97-.009.01zm.227-.251-2.151-2.092-.02.021-.02.021zm.822-.741-1.601-2.537-.15.095-.138.112zm10.942 3.465 2.963-.469-.129-.812-.524-.633zm-.292 4.952 2.72 1.267.031-.068.029-.07zm-.295.583 2.606 1.487.01-.017.009-.017zm-.128.219 2.56 1.564.006-.009zm-.201.313 2.491 1.672zm-.25.363 2.46 1.717zm-.793 1.121 2.444 1.739zm-3.211 4.481 2.435 1.752zm-11.964 16.546-2.429-1.761-1.192 1.645 1.084 1.718zm66.502 105.069-2.531 1.61 5.531 8.692v-10.302zm0-313.013v-3h-3v3zm14 0h3v-2.966l-2.966-.034zm0 333.301v3h3v-3zm-3.277 0v-3h-.936l-.77.532zm-4.176 2.886-1.706-2.467zm-5.758 3.982-2.468 1.706 1.707 2.468 2.467-1.707zm-76.082-119.921 2.537-1.602-2.389-3.782-2.593 3.645zm-80.854 115.95 2.477 1.692zm-5.372 7.865-2.355 1.86 2.53 3.203 2.302-3.371zm-5.903-7.474 2.355-1.859zM116.492 274.63l-2.354 1.859zM114 271.474l2.354-1.859-5.354-6.782v8.641zm0 147.657 2.121 2.121.879-.878v-1.243zm-14-.001h3zm0-335.918-.448-2.966L97 80.63v2.58zm131.691 110.734h3l-5.809-1.051zm-12.051 21.758 2.405 1.793zm-86.199 57.8-1.08-2.799-3.795 1.466 2.521 3.192zm98.25 124.421-2.354 1.859 5.354 6.781v-8.64zm-12.448-247.126 2.837-.975zM114 95.407l-.302-2.984-2.698.272v2.712zm0 170.301h-3v4.255l4.008-1.429zm5.634-2.009 1.007 2.826h.001zm88.782-56.362 2.405 1.793zM105.956 82.314l.447 2.966c55.41-8.358 107.279 19.716 122.483 59.843l2.805-1.063 2.806-1.063c-16.425-43.35-71.447-72.329-128.988-63.65zm125.735 61.746h3V89.235h-6v54.825zm0-54.825v3h14v-6h-14zm14 0h-3v306.258h6V89.235zm0 306.258 2.472 1.7a7711 7711 0 0 1 71.533-102.164l-2.443-1.741-2.443-1.741a7717 7717 0 0 0-71.59 102.246zm71.562-102.205 2.537-1.601c-5.022-7.957-10.323-16.352-15.911-25.211l-2.537 1.6-2.538 1.601c5.589 8.86 10.89 17.256 15.912 25.212zm-15.911-25.212 1.6 2.538 11.842-7.469-1.6-2.538-1.601-2.537-11.842 7.469zm11.842-7.469-2.538 1.601c4.47 7.085 8.756 13.873 12.859 20.375l2.537-1.602 2.537-1.601c-4.104-6.503-8.389-13.289-12.858-20.373zm12.858 20.374 2.439 1.748c3.659-5.108 6.622-9.228 8.78-12.212l-2.431-1.758-2.431-1.758a3636 3636 0 0 0-8.796 12.233zm8.788-12.222 2.431 1.758c1.299-1.797 2.309-3.187 3.001-4.134l-2.422-1.77-2.422-1.77c-.701.958-1.716 2.356-3.019 4.158zm3.01-4.146 2.422 1.771q.52-.713.805-1.097l-2.408-1.789-2.408-1.789c-.205.276-.487.66-.833 1.134zm.819-1.115 2.408 1.789.242-.322-2.383-1.821-2.384-1.822c-.088.115-.189.25-.291.387zm.267-.354 2.383 1.821.115-.146-2.341-1.877-2.341-1.876c-.084.105-.157.2-.2.256zm.157-.202 2.341 1.877q.043-.055.108-.132l-2.271-1.959-2.272-1.96c-.123.143-.219.263-.247.298zm.178-.214 2.263 1.969.018-.021.047-.051.09-.099-2.191-2.049-2.191-2.05c-.089.095-.226.247-.299.331zm.227-.251 2.151 2.091.053-.05a8.851 8.851 0 0 1 .507-.451l-1.889-2.331-1.889-2.33c-.38.307-.873.762-1.084.979zm.822-.741 1.6 2.538c-.338.213-.554.225-.386.192a4 4 0 0 1 .575-.053 10 10 0 0 1 2.223.207c1.782.361 3.516 1.163 4.62 2.495l2.31-1.914 2.31-1.914c-2.282-2.754-5.477-4.027-8.048-4.548a16 16 0 0 0-3.611-.323 10 10 0 0 0-1.522.16c-.407.079-1.063.239-1.672.623zm10.942 3.465-2.963.47c.105.66.096 1.506.02 2.301-.037.383-.086.712-.13.951-.06.323-.078.296.001.102l2.78 1.128 2.78 1.129c.171-.423.276-.931.338-1.265.078-.419.15-.921.203-1.469.103-1.064.148-2.465-.066-3.816zm-.292 4.952-2.72-1.266c-.023.05-.064.134-.113.23l-.061.118-.026.049 2.625 1.452 2.625 1.453c.09-.163.271-.515.39-.769zm-.295.583-2.606-1.486-.051.089-.026.044-.011.017 2.566 1.555 2.566 1.555c.046-.076.123-.209.168-.287zm-.128.219-2.56-1.564a6 6 0 0 1-.132.205l2.491 1.672 2.491 1.672c.025-.037.142-.211.27-.421zm-.201.313-2.491-1.673a18 18 0 0 1-.219.319l2.46 1.717 2.46 1.717c.087-.125.19-.273.281-.408zm-.25.363-2.46-1.718q-.258.37-.777 1.1l2.444 1.739 2.444 1.739c.347-.487.62-.872.809-1.143zm-.793 1.121-2.444-1.739c-.693.973-1.753 2.453-3.202 4.469l2.435 1.751 2.435 1.752c1.453-2.019 2.519-3.508 3.22-4.494zm-3.211 4.481-2.435-1.751a5688 5688 0 0 1-11.958 16.536l2.429 1.761 2.429 1.761a5480 5480 0 0 0 11.97-16.555zm-11.964 16.546-2.537 1.602c34.495 54.639 55.064 87.094 66.508 105.077l2.531-1.61 2.531-1.611c-11.438-17.974-32.003-50.422-66.496-105.059zm66.502 105.069h3V85.835h-6v313.013zm0-313.013v3h13.966l.034-3 .034-3H400.62zm14 0h-3v333.301h6V85.835zm0 333.301v-3h-3.277v6h3.277zm-3.277 0-1.706-2.468-4.176 2.887 1.706 2.467 1.706 2.468 4.176-2.887zm-4.176 2.886-1.706-2.467-5.758 3.981 1.706 2.468 1.706 2.467 5.758-3.981zm-5.758 3.982 2.468-1.706c-1.526-2.207-19.253-29.922-76.013-119.817l-2.537 1.602-2.537 1.602c56.695 89.79 74.532 117.682 76.151 120.025zm-76.082-119.921-2.445-1.739c-19.823 27.87-49.381 69.862-80.887 115.997l2.478 1.692 2.477 1.692c31.479-46.095 61.014-88.055 80.822-115.903zm-80.854 115.95-2.478-1.692-5.372 7.865 2.478 1.692 2.477 1.692 5.372-7.865zm-5.372 7.865 2.354-1.859-5.902-7.474-2.355 1.859-2.354 1.859 5.902 7.475zm-5.903-7.474 2.355-1.859-116.706-147.794-2.355 1.859-2.354 1.859 116.706 147.794zM116.492 274.63l2.355-1.859-2.493-3.156-2.354 1.859-2.354 1.859 2.492 3.156zM114 271.474h-3v147.657h6V271.474zm0 147.657-2.121-2.122c-1.379 1.379-2.611 1.934-3.608 2.133-1.019.204-2.012.079-2.947-.233-.948-.315-1.773-.804-2.377-1.236a9 9 0 0 1-.817-.656l-.022-.021.004.003.007.008.008.008.012.012c.011.01.643.981.861 2.103h-6c.218 1.122.85 2.092.861 2.103l.012.013.01.01.015.015.034.033.098.093q.12.112.32.287c.265.23.64.536 1.11.872.927.662 2.289 1.486 3.966 2.045 1.69.564 3.76.877 6.022.424 2.284-.456 4.552-1.652 6.673-3.773zm-14-.001h3V83.212h-6V419.13zm0-335.918.447 2.966 5.957-.898-.448-2.966-.447-2.967-5.957.899zm131.691 110.734-2.809-1.051c-2.626 7.019-6.466 14.065-11.648 21.016l2.406 1.793 2.405 1.793c5.496-7.372 9.618-14.913 12.456-22.5zm-12.051 21.758-2.406-1.793c-15.505 20.8-42.827 40.555-84.873 56.794l1.08 2.799 1.081 2.798c42.673-16.481 71.111-36.79 87.523-58.805zm-86.199 57.8-2.354 1.859 98.25 124.421 2.354-1.859 2.355-1.859-98.25-124.421zm98.25 124.421h3V193.946h-6v203.979zm-12.448-247.126 2.837-.975c-12.145-35.353-57.359-62.564-108.382-57.402l.302 2.985.302 2.985c48.944-4.952 91.072 21.271 102.104 53.382zM114 95.407h-3v170.301h6v-170.3zm0 170.301 1.008 2.826 5.633-2.009-1.007-2.826-1.008-2.826-5.634 2.009zm5.634-2.009 1.008 2.826c46.355-16.533 74.871-36.86 90.179-57.395l-2.405-1.793-2.405-1.793c-14.344 19.242-41.657 39.021-87.385 55.33zm88.782-56.362 2.405 1.793c15.209-20.402 17.503-41.132 11.259-59.306l-2.837.975-2.837.975c5.562 16.19 3.699 34.863-10.395 53.77z"/></g><defs><filter id="a" width="328.62" height="365.152" x="78" y="77.81" color-interpolation-filters="sRGB" filterUnits="userSpaceOnUse"><feFlood flood-opacity="0" result="BackgroundImageFix"/><feColorMatrix in="SourceAlpha" result="hardAlpha" values="0 0 0 0 0 0 0 0 0 0 0 0 0 0 0 0 0 0 127 0"/><feOffset dy="4"/><feGaussianBlur stdDeviation="2"/><feComposite in2="hardAlpha" operator="out"/><feColorMatrix values="0 0 0 0 0 0 0 0 0 0 0 0 0 0 0 0 0 0 0.25 0"/><feBlend in2="BackgroundImageFix" result="effect1_dropShadow_18_42"/><feBlend in="SourceGraphic" in2="effect1_dropShadow_18_42" result="shape"/></filter><filter id="b" width="328.62" height="365.152" x="93" y="77.809" color-interpolation-filters="sRGB" filterUnits="userSpaceOnUse"><feFlood flood-opacity="0" result="BackgroundImageFix"/><feColorMatrix in="SourceAlpha" result="hardAlpha" values="0 0 0 0 0 0 0 0 0 0 0 0 0 0 0 0 0 0 127 0"/><feOffset dy="4"/><feGaussianBlur stdDeviation="2"/><feComposite in2="hardAlpha" operator="out"/><feColorMatrix values="0 0 0 0 0 0 0 0 0 0 0 0 0 0 0 0 0 0 0.25 0"/><feBlend in2="BackgroundImageFix" result="effect1_dropShadow_18_42"/><feBlend in="SourceGraphic" in2="effect1_dropShadow_18_42" result="shape"/></filter></defs></svg>