<svg width="440" height="481" viewBox="0 0 440 481" fill="none" xmlns="http://www.w3.org/2000/svg">
<g filter="url(#filter0_d_10_58)">
<path d="M12.4453 4.56262C90.4403 -7.32279 163.58 33.4649 183.3 91.4591C185.09 96.7226 186.425 102.106 187.283 107.577V11.4825H201.283V444.773C242.768 383.725 280.711 329.416 305.292 294.578C298.11 283.083 290.512 270.918 282.478 258.049L294.353 250.635C301.237 261.661 307.8 272.17 314.055 282.182C320.116 273.625 324.961 266.823 328.354 262.082C330.138 259.589 331.526 257.661 332.478 256.345C332.952 255.689 333.325 255.174 333.59 254.815C333.719 254.638 333.838 254.479 333.934 254.353C333.978 254.294 334.042 254.209 334.111 254.122C334.142 254.083 334.209 253.999 334.294 253.9C334.339 253.847 334.452 253.72 334.522 253.645C334.646 253.517 335.05 253.138 335.343 252.899C336.432 252.205 342.928 252.255 346.319 256.361C346.632 258.354 346.213 260.817 346.03 261.271C345.943 261.461 345.796 261.75 345.739 261.854C345.702 261.92 345.639 262.028 345.61 262.075C345.516 262.231 345.427 262.366 345.396 262.411C345.309 262.544 345.198 262.706 345.082 262.873C344.841 263.222 344.482 263.735 344.008 264.408C343.055 265.761 341.598 267.816 339.607 270.612C335.812 275.943 330.056 283.992 322.105 295.068C375.326 380.239 404.623 426.903 419.184 449.977V6.76672H433.184V469.028H431.304C431.316 469.047 431.327 469.064 431.338 469.08L425.561 473.033L419.784 476.986C417.644 473.859 392.866 434.715 313.34 307.458C286.146 346.052 244.527 405.739 200.082 471.492L194.693 479.465L188.768 471.883L28.5566 266.905L22.6025 259.287L31.6992 256.009C95.1662 233.14 134.012 205.089 154.792 176.927C175.404 148.991 178.461 120.718 170.045 95.9669C153.45 47.1631 90.9604 9.40926 20.5 17.6056V469.023C13.5237 475.998 6.54729 469.069 6.5 469.022V5.46887L12.4453 4.56262ZM187.283 136.491C184.755 152.689 177.91 169.175 166.058 185.238C144.13 214.956 105.284 243.002 45.4834 265.827L187.283 447.25V136.491Z" fill="black"/>
<path d="M12.4453 4.56262L12.0687 2.09115L12.0686 2.09117L12.4453 4.56262ZM183.3 91.4591L185.667 90.6543V90.6543L183.3 91.4591ZM187.283 107.577L184.813 107.965L189.783 107.577H187.283ZM187.283 11.4825V8.98254H184.783V11.4825H187.283ZM201.283 11.4825H203.783V8.98254H201.283V11.4825ZM201.283 444.773H198.783V452.9L203.351 446.178L201.283 444.773ZM305.292 294.578L307.335 296.02L308.292 294.662L307.412 293.254L305.292 294.578ZM282.478 258.049L281.154 255.928L279.033 257.252L280.357 259.373L282.478 258.049ZM294.353 250.635L296.473 249.311L295.149 247.19L293.029 248.514L294.353 250.635ZM314.055 282.182L311.934 283.506L313.924 286.691L316.095 283.627L314.055 282.182ZM328.354 262.082L326.321 260.627V260.627L328.354 262.082ZM332.478 256.345L330.452 254.88L330.452 254.88L332.478 256.345ZM333.59 254.815L335.604 256.296L335.604 256.295L333.59 254.815ZM333.934 254.353L331.94 252.844L331.94 252.845L333.934 254.353ZM334.111 254.122L336.07 255.676L336.07 255.676L334.111 254.122ZM334.294 253.9L332.4 252.268L332.392 252.277L334.294 253.9ZM334.522 253.645L332.721 251.911L332.704 251.928L332.688 251.947L334.522 253.645ZM335.343 252.899L334.001 250.789L333.875 250.87L333.759 250.964L335.343 252.899ZM346.319 256.361L348.789 255.974L348.683 255.297L348.247 254.769L346.319 256.361ZM346.03 261.271L348.301 262.317L348.327 262.261L348.35 262.203L346.03 261.271ZM345.739 261.854L347.916 263.083L347.924 263.069L347.932 263.054L345.739 261.854ZM345.61 262.075L347.75 263.369L347.753 263.363L345.61 262.075ZM345.396 262.411L343.315 261.027L343.314 261.028L345.396 262.411ZM345.082 262.873L343.025 261.452L343.025 261.452L345.082 262.873ZM344.008 264.408L346.052 265.848L346.052 265.848L344.008 264.408ZM339.607 270.612L341.644 272.062V272.062L339.607 270.612ZM322.105 295.068L320.075 293.61L319.097 294.971L319.985 296.392L322.105 295.068ZM419.184 449.977L417.069 451.311L421.684 458.623V449.977H419.184ZM419.184 6.76672V4.26672H416.684V6.76672H419.184ZM433.184 6.76672H435.684V4.26672H433.184V6.76672ZM433.184 469.028V471.528H435.684V469.028H433.184ZM431.304 469.028V466.528H426.591L429.234 470.431L431.304 469.028ZM431.338 469.08L432.75 471.143L434.813 469.732L433.401 467.668L431.338 469.08ZM425.561 473.033L424.149 470.97L424.149 470.97L425.561 473.033ZM419.784 476.986L417.721 478.398L419.133 480.462L421.196 479.05L419.784 476.986ZM313.34 307.458L315.46 306.133L313.465 302.941L311.296 306.018L313.34 307.458ZM200.082 471.492L198.011 470.092L198.011 470.092L200.082 471.492ZM194.693 479.465L192.724 481.004L194.84 483.712L196.765 480.865L194.693 479.465ZM188.768 471.883L190.737 470.343L190.737 470.343L188.768 471.883ZM28.5566 266.905L26.5869 268.445L26.5869 268.445L28.5566 266.905ZM22.6025 259.287L21.7549 256.935L18.5064 258.106L20.6328 260.827L22.6025 259.287ZM31.6992 256.009L30.8517 253.657L30.8516 253.657L31.6992 256.009ZM154.792 176.927L156.804 178.411V178.411L154.792 176.927ZM170.045 95.9669L172.412 95.1621V95.1621L170.045 95.9669ZM20.5 17.6056L20.2111 15.1223L18 15.3795V17.6056H20.5ZM20.5 469.023L22.2677 470.79L23 470.058V469.023H20.5ZM6.5 469.022H4V470.049L4.72286 470.78L6.5 469.022ZM6.5 5.46887L6.12327 2.99742L4 3.32107V5.46887H6.5ZM187.283 136.491H189.783L184.813 136.106L187.283 136.491ZM166.058 185.238L168.069 186.723L168.069 186.723L166.058 185.238ZM45.4834 265.827L44.5919 263.492L41.4285 264.699L43.5137 267.367L45.4834 265.827ZM187.283 447.25L185.313 448.79L189.783 454.508V447.25H187.283ZM12.4453 4.56262L12.8219 7.03409C89.9038 -4.71217 161.689 35.6689 180.933 92.2639L183.3 91.4591L185.667 90.6543C165.471 31.2608 90.9768 -9.9334 12.0687 2.09115L12.4453 4.56262ZM183.3 91.4591L180.933 92.2639C182.677 97.3942 183.978 102.638 184.813 107.965L187.283 107.577L189.753 107.19C188.872 101.574 187.502 96.051 185.667 90.6543L183.3 91.4591ZM187.283 107.577H189.783V11.4825H187.283H184.783V107.577H187.283ZM187.283 11.4825V13.9825H201.283V11.4825V8.98254H187.283V11.4825ZM201.283 11.4825H198.783V444.773H201.283H203.783V11.4825H201.283ZM201.283 444.773L203.351 446.178C244.826 385.145 282.76 330.849 307.335 296.02L305.292 294.578L303.249 293.137C278.662 327.984 240.71 382.304 199.215 443.367L201.283 444.773ZM305.292 294.578L307.412 293.254C300.23 281.758 292.633 269.593 284.598 256.725L282.478 258.049L280.357 259.373C288.392 272.242 295.99 284.407 303.172 295.903L305.292 294.578ZM282.478 258.049L283.802 260.17L295.677 252.756L294.353 250.635L293.029 248.514L281.154 255.928L282.478 258.049ZM294.353 250.635L292.232 251.959C299.117 262.985 305.68 273.494 311.934 283.506L314.055 282.182L316.175 280.857C309.921 270.845 303.358 260.337 296.473 249.311L294.353 250.635ZM314.055 282.182L316.095 283.627C322.154 275.073 326.996 268.274 330.387 263.537L328.354 262.082L326.321 260.627C322.925 265.372 318.077 272.178 312.015 280.737L314.055 282.182ZM328.354 262.082L330.387 263.537C332.169 261.046 333.554 259.122 334.503 257.81L332.478 256.345L330.452 254.88C329.497 256.2 328.107 258.131 326.321 260.627L328.354 262.082ZM332.478 256.345L334.503 257.81C334.978 257.153 335.346 256.646 335.604 256.296L333.59 254.815L331.576 253.333C331.305 253.702 330.926 254.225 330.452 254.88L332.478 256.345ZM333.59 254.815L335.604 256.295C335.729 256.126 335.84 255.976 335.928 255.861L333.934 254.353L331.94 252.845C331.835 252.982 331.71 253.151 331.576 253.334L333.59 254.815ZM333.934 254.353L335.927 255.861C335.971 255.804 336.02 255.739 336.07 255.676L334.111 254.122L332.153 252.568C332.064 252.68 331.985 252.784 331.94 252.844L333.934 254.353ZM334.111 254.122L336.07 255.676C336.097 255.642 336.141 255.586 336.195 255.523L334.294 253.9L332.392 252.277C332.277 252.412 332.188 252.525 332.153 252.569L334.111 254.122ZM334.294 253.9L336.188 255.531C336.188 255.531 336.188 255.531 336.19 255.529C336.191 255.528 336.193 255.526 336.195 255.523C336.199 255.518 336.205 255.512 336.212 255.504C336.226 255.488 336.243 255.469 336.261 255.449C336.299 255.406 336.335 255.367 336.357 255.343L334.522 253.645L332.688 251.947C332.601 252.04 332.468 252.189 332.4 252.268L334.294 253.9ZM334.522 253.645L336.323 255.379C336.319 255.384 336.338 255.364 336.39 255.314C336.436 255.27 336.495 255.215 336.56 255.155C336.696 255.03 336.832 254.911 336.927 254.833L335.343 252.899L333.759 250.964C333.396 251.261 332.919 251.706 332.721 251.911L334.522 253.645ZM335.343 252.899L336.685 255.008C336.427 255.172 336.284 255.17 336.472 255.133C336.6 255.107 336.82 255.079 337.128 255.068C337.743 255.047 338.568 255.099 339.475 255.281C341.328 255.654 343.188 256.496 344.392 257.953L346.319 256.361L348.247 254.769C346.059 252.121 342.976 250.885 340.461 250.379C339.184 250.123 337.969 250.036 336.953 250.071C336.446 250.089 335.953 250.139 335.504 250.227C335.115 250.304 334.531 250.452 334.001 250.789L335.343 252.899ZM346.319 256.361L343.85 256.749C343.961 257.459 343.95 258.344 343.872 259.154C343.834 259.547 343.784 259.888 343.738 260.139C343.679 260.46 343.654 260.479 343.711 260.338L346.03 261.271L348.35 262.203C348.498 261.835 348.594 261.376 348.655 261.046C348.729 260.645 348.798 260.161 348.849 259.632C348.948 258.599 348.99 257.256 348.789 255.974L346.319 256.361ZM346.03 261.271L343.76 260.224C343.732 260.284 343.688 260.376 343.639 260.473C343.615 260.52 343.594 260.563 343.576 260.597C343.567 260.615 343.559 260.629 343.554 260.639C343.548 260.651 343.546 260.655 343.546 260.653L345.739 261.854L347.932 263.054C348.018 262.897 348.191 262.555 348.301 262.317L346.03 261.271ZM345.739 261.854L343.562 260.624C343.551 260.644 343.532 260.677 343.511 260.714C343.489 260.752 343.473 260.779 343.467 260.788L345.61 262.075L347.753 263.363C347.794 263.296 347.869 263.167 347.916 263.083L345.739 261.854ZM345.61 262.075L343.471 260.782C343.406 260.889 343.34 260.989 343.315 261.027L345.396 262.411L347.478 263.796C347.513 263.743 347.627 263.572 347.75 263.369L345.61 262.075ZM345.396 262.411L343.314 261.028C343.239 261.141 343.138 261.289 343.025 261.452L345.082 262.873L347.139 264.295C347.257 264.123 347.378 263.946 347.479 263.795L345.396 262.411ZM345.082 262.873L343.025 261.452C342.791 261.791 342.437 262.297 341.964 262.969L344.008 264.408L346.052 265.848C346.527 265.173 346.891 264.652 347.139 264.294L345.082 262.873ZM344.008 264.408L341.964 262.969C341.015 264.316 339.561 266.367 337.571 269.162L339.607 270.612L341.644 272.062C343.636 269.265 345.095 267.206 346.052 265.848L344.008 264.408ZM339.607 270.612L337.571 269.162C333.778 274.49 328.024 282.536 320.075 293.61L322.105 295.068L324.136 296.525C332.088 285.449 337.846 277.397 341.644 272.062L339.607 270.612ZM322.105 295.068L319.985 296.392C373.206 381.564 402.505 428.233 417.069 451.311L419.184 449.977L421.298 448.642C406.74 425.574 377.445 378.913 324.226 293.743L322.105 295.068ZM419.184 449.977H421.684V6.76672H419.184H416.684V449.977H419.184ZM419.184 6.76672V9.26672H433.184V6.76672V4.26672H419.184V6.76672ZM433.184 6.76672H430.684V469.028H433.184H435.684V6.76672H433.184ZM433.184 469.028V466.528H431.304V469.028V471.528H433.184V469.028ZM431.304 469.028L429.234 470.431C429.228 470.422 429.225 470.417 429.223 470.415C429.222 470.413 429.222 470.413 429.226 470.418C429.228 470.422 429.235 470.432 429.242 470.443C429.25 470.455 429.261 470.472 429.275 470.492L431.338 469.08L433.401 467.668C433.409 467.68 433.415 467.689 433.417 467.693C433.419 467.695 433.42 467.697 433.417 467.692C433.415 467.689 433.409 467.679 433.402 467.669C433.395 467.658 433.385 467.644 433.374 467.626L431.304 469.028ZM431.338 469.08L429.926 467.017L424.149 470.97L425.561 473.033L426.972 475.097L432.75 471.143L431.338 469.08ZM425.561 473.033L424.149 470.97L418.372 474.923L419.784 476.986L421.196 479.05L426.972 475.096L425.561 473.033ZM419.784 476.986L421.847 475.575C419.746 472.504 395.013 433.434 315.46 306.133L313.34 307.458L311.22 308.783C390.719 435.997 415.542 475.214 417.721 478.398L419.784 476.986ZM313.34 307.458L311.296 306.018C284.096 344.621 242.468 404.322 198.011 470.092L200.082 471.492L202.153 472.892C246.587 407.156 288.196 347.483 315.383 308.898L313.34 307.458ZM200.082 471.492L198.011 470.092L192.622 478.065L194.693 479.465L196.765 480.865L202.153 472.892L200.082 471.492ZM194.693 479.465L196.663 477.925L190.737 470.343L188.768 471.883L186.798 473.422L192.724 481.004L194.693 479.465ZM188.768 471.883L190.737 470.343L30.5264 265.366L28.5566 266.905L26.5869 268.445L186.798 473.422L188.768 471.883ZM28.5566 266.905L30.5264 265.366L24.5723 257.748L22.6025 259.287L20.6328 260.827L26.5869 268.445L28.5566 266.905ZM22.6025 259.287L23.4501 261.639L32.5468 258.361L31.6992 256.009L30.8516 253.657L21.7549 256.935L22.6025 259.287ZM31.6992 256.009L32.5467 258.361C96.2786 235.396 135.625 207.114 156.804 178.411L154.792 176.927L152.78 175.443C132.399 203.064 94.0538 230.883 30.8517 253.657L31.6992 256.009ZM154.792 176.927L156.804 178.411C177.875 149.854 181.106 120.731 172.412 95.1621L170.045 95.9669L167.678 96.7717C175.816 120.705 172.934 148.129 152.78 175.443L154.792 176.927ZM170.045 95.9669L172.412 95.1621C155.355 44.999 91.5651 6.82205 20.2111 15.1223L20.5 17.6056L20.7889 20.0888C90.3557 11.9965 151.545 49.3272 167.678 96.7717L170.045 95.9669ZM20.5 17.6056H18V469.023H20.5H23V17.6056H20.5ZM20.5 469.023L18.7323 467.255C17.2964 468.691 15.9824 469.299 14.8807 469.522C13.7611 469.748 12.6815 469.611 11.6858 469.282C9.61734 468.599 8.19547 467.181 8.27714 467.263L6.5 469.022L4.72286 470.78C4.85182 470.91 6.94178 472.981 10.1174 474.03C11.7437 474.567 13.7193 474.857 15.8713 474.422C18.0413 473.984 20.2154 472.842 22.2677 470.79L20.5 469.023ZM6.5 469.022H9V5.46887H6.5H4V469.022H6.5ZM6.5 5.46887L6.87673 7.94032L12.822 7.03407L12.4453 4.56262L12.0686 2.09117L6.12327 2.99742L6.5 5.46887ZM187.283 136.491L184.813 136.106C182.353 151.869 175.683 167.983 164.046 183.754L166.058 185.238L168.069 186.723C180.138 170.367 187.157 153.509 189.753 136.877L187.283 136.491ZM166.058 185.238L164.046 183.754C142.5 212.955 104.128 240.767 44.5919 263.492L45.4834 265.827L46.3749 268.163C106.44 245.237 145.76 216.957 168.069 186.723L166.058 185.238ZM45.4834 265.827L43.5137 267.367L185.313 448.79L187.283 447.25L189.253 445.711L47.4531 264.288L45.4834 265.827ZM187.283 447.25H189.783V136.491H187.283H184.783V447.25H187.283Z" fill="#D4089A"/>
</g>
<defs>
<filter id="filter0_d_10_58" x="0" y="0" width="439.684" height="491.712" filterUnits="userSpaceOnUse" color-interpolation-filters="sRGB">
<feFlood flood-opacity="0" result="BackgroundImageFix"/>
<feColorMatrix in="SourceAlpha" type="matrix" values="0 0 0 0 0 0 0 0 0 0 0 0 0 0 0 0 0 0 127 0" result="hardAlpha"/>
<feOffset dy="4"/>
<feGaussianBlur stdDeviation="2"/>
<feComposite in2="hardAlpha" operator="out"/>
<feColorMatrix type="matrix" values="0 0 0 0 0 0 0 0 0 0 0 0 0 0 0 0 0 0 0.25 0"/>
<feBlend mode="normal" in2="BackgroundImageFix" result="effect1_dropShadow_10_58"/>
<feBlend mode="normal" in="SourceGraphic" in2="effect1_dropShadow_10_58" result="shape"/>
</filter>
</defs>
</svg>
